<?xml version="1.0" encoding="UTF-8"?>
<svg id="Layer_3" data-name="Layer 3" xmlns="http://www.w3.org/2000/svg" viewBox="0 0 450 600">
  <defs>
    <style>
      .cls-1 {
        fill: #f2b7d3;
      }

      .cls-2 {
        fill: #fef8fb;
      }

      .cls-3 {
        fill: #a03a00;
      }

      .cls-4 {
        fill: none;
        stroke: #a03a00;
        stroke-miterlimit: 10;
      }
    </style>
  </defs>
  <rect class="cls-2" width="450" height="600"/>
  <path class="cls-3" d="M245.8,301.9c-.8,10.9,7.7,20.1,18.4,20.6,5.1,.2,10.1-1.5,14.7-3.6,9.2-4.7,16.4-12.8,22.6-21,3.1-4.2,6-8.7,9.3-12.9,6.5-8.4,14.1-16,22.5-22.4-7.7,7.3-14.8,15.1-20.9,23.6-6,8.6-11.6,18-19.4,25.3-4.7,4.7-10.3,9-16.8,11.1-3.8,1.3-7.9,2.4-12.1,1.9-11.5-1-20.3-11.3-18.3-22.6h0Z"/>
  <path class="cls-3" d="M268.4,282.6c-.3-4.6,2.6-9.9,7.2-11.6,4.2-1.6,7.1-4.5,9.4-8.3,1.5-2.5,2.6-5.3,3.4-8.2,.3,3.1-.4,6.2-1.6,9.1-1.8,4.4-5.7,8.2-10.3,9.6-4.4,1.5-6.7,5.1-8.1,9.4h0Z"/>
  <path class="cls-3" d="M268.4,282.6c9.3-.6,19.1-2.4,26.5-8.3,3.7-2.8,7-6,7.5-10.8,.6-4.6-1-9.3-3.2-13.4,1.6,1.8,2.9,3.9,3.9,6.2,4.7,11.4-3.3,19.2-13,23.8-6.9,2.9-14.5,3.7-21.7,2.5h0Z"/>
  <path class="cls-3" d="M318.1,258.7c-1.1,7.9-5.5,15-11,20.5-5.5,5.6-10.8,11.1-16.8,16.1,4.4-6.2,9.7-12.3,15-17.8,5.5-5.5,9.7-11.7,12.8-18.8h0Z"/>
  <path class="cls-3" d="M286.7,110.2c21.7,18.8,35,47.1,35.2,75.9-.1,6.4-.7,13.4-.8,19.8-.3,8.8,.2,17.5,1.4,26.2,.5,4.3,1.5,8.4,3.4,12.3,2.9,5.8,6.7,11.5,8.8,17.9,1.5,4.3,1.9,8.9,1.9,13.4s1.2,8.4,2.7,12.4c4.4,12.5,11.8,23.7,16.1,36.2,2.6,9.5,3.2,18.5,4.4,27.8,1.4,5.7,4.6,10.8,8,15.7,3.6,5.2,8.2,10.5,12.4,15.3,20.7,22.5,7.7,44.7,16.4,69.5,6,16.7,20.6,28.8,36.5,35.7-16.3-6.4-31.3-18.5-37.7-35.2-6.7-16.5-1.4-35.4-6.9-52-2.6-8.5-8.5-14.9-14.3-21.4-2.9-3.4-5.7-6.8-8.2-10.4-3.8-5.4-7.7-11.4-8.7-18.2-.7-6.6-1.4-13-2.7-19.5-.8-4.3-1.9-8.4-3.8-12.3-3.6-8-7.9-15.7-11.3-23.9-2.5-6.2-5.3-12.6-5.3-19.4,.2-6.6-1.2-12.8-4.2-18.6-2.7-5.9-6.9-11.5-8.5-18-1.5-6.5-2-13.2-2.4-19.9-.5-11,.7-22.1,1.1-33,.1-28.9-12.6-57-33.5-76.3h0Z"/>
  <path class="cls-3" d="M279.3,84.8c2.8,6.6,6.5,12.9,11.1,18.4,4.5,5.7,10.5,9.9,15,15.5,13.6,16.8,23.2,37.4,25.7,59.1,.8,7.2,.6,14.5,.4,21.7-2.4,50.2,17.5,35.3,17.2,71.8,.1,7,3.4,13.5,9.3,17.4,1.4,1,3,1.9,4.5,3.1,4.5,3.4,7.8,8.2,9.7,13.4,3.8,10.3,3.5,21.5,5.3,32.1,3.7,21.4,17.7,39.4,33.6,53.5-51.4-43.4-27.3-70.1-46.2-93.7-2.3-2.7-5.2-4.5-8.2-6.5-4.7-3.1-8.3-8-9.6-13.6-1.3-5.3-.7-11-1.4-16.2-.4-3.5-1.4-6.8-3-9.9-3.3-6.3-8.4-11.9-10.6-18.9-6-17.5-1.3-36-3.3-53.9l-.7-5.3-1-5.2c-3.8-17.4-11.8-34-22.8-48-4.4-5.7-10.2-10.1-14.6-15.9-4.4-5.8-7.9-12.2-10.4-18.9h0Z"/>
  <path class="cls-3" d="M368.6,78.2c3.6,6.2,6.6,12.8,8,19.9,.8,3.5,1.1,7.1,1.1,10.7s-.5,7.2-1.2,10.7-1.6,7-2.5,10.5c-.8,3.5-1.5,6.9-1.6,10.4s.6,6.9,2.1,10c.4,.8,.8,1.6,1.3,2.2,.5,.6,1.1,1.3,1.7,2.1,.6,.7,1.1,1.5,1.6,2.2,.5,.8,1.1,1.5,1.5,2.3,2,3.1,3.5,6.4,4.6,9.9,1.2,3.5,1.9,7,2.5,10.6,1.2,7.1,1.8,14.2,4,20.9,1.1,3.3,2.5,6.5,4.5,9.3s4.6,5,7.4,7.2c2.8,2.1,5.9,4.4,8.2,7.4,2.3,2.9,4,6.3,5.3,9.8,1.2,3.5,2.1,7.1,2.3,10.8,.3,3.7-.1,7.4-.7,11-.6,3.6-1.2,7-1.3,10.5-.1,3.5,.2,6.9,1.1,10.3,.2,.9,.4,1.7,.7,2.5,.3,.8,.5,1.7,.8,2.5,.6,1.6,1.3,3.2,2.1,4.8,1.6,3.1,3.6,6,5.6,9,1,1.5,1.9,3.1,2.7,4.8,.8,1.7,1.5,3.4,2,5.2,.3,.9,.4,1.8,.6,2.7l.4,2.7c.2,1.8,.5,3.5,.8,5.3,.6,3.5,1.2,7,1.9,10.5,.3,1.8,.7,3.5,.9,5.3,.2,1.9,.3,3.6,.5,5.4,.6,7.1,1.6,14.2,2.8,21.2,2.2,14.1,5.3,28.1,8.6,42-3.8-13.8-7.1-27.7-9.8-41.8-1.3-7-2.4-14.1-3.1-21.3-.2-1.8-.3-3.6-.6-5.3-.3-1.7-.6-3.5-1-5.2-.8-3.5-1.5-7-2.1-10.5-.3-1.8-.6-3.5-.8-5.3l-.4-2.6c-.2-.8-.4-1.7-.6-2.5-.5-1.7-1.1-3.3-1.9-4.8s-1.7-3-2.6-4.5c-1.9-2.9-4.1-5.9-5.7-9.2-.9-1.6-1.6-3.3-2.2-5-.3-.9-.6-1.7-.8-2.6-.3-.9-.6-1.7-.7-2.6-.9-3.5-1.3-7.3-1.3-10.9,.1-3.7,.7-7.3,1.2-10.8,.5-3.5,.9-7,.6-10.4s-1.1-6.8-2.3-10.1c-1.1-3.3-2.7-6.4-4.8-9.1-2.1-2.7-4.8-4.8-7.7-7-2.9-2.2-5.8-4.6-7.9-7.7-2.2-3.1-3.6-6.5-4.8-10-2.3-7-2.9-14.2-4-21.2s-3-13.8-6.7-19.8c-.4-.8-.9-1.5-1.4-2.2s-1-1.5-1.5-2.2-1.1-1.3-1.7-2.1-.9-1.6-1.4-2.5c-1.6-3.4-2.3-7.1-2.1-10.8,.1-3.7,.9-7.2,1.8-10.7s1.8-6.9,2.6-10.4c.8-3.5,1.3-7,1.5-10.5,.1-3.5-.2-7.1-.8-10.6-.6-3.5-1.6-6.9-2.9-10.3-1.2-3.6-2.7-6.9-4.4-10.1h0Z"/>
  <path class="cls-3" d="M323,26.3c17.3,16.8,31.2,40.2,30,65.1-.7,7-1.8,13.8-2.1,20.8-.7,17.3-.9,34.8,1.6,52,3.1,20.6,10,40.5,20.1,58.7,3.4,6.1,7.3,11.7,11.8,17,2.2,2.7,4.5,5.5,6.3,8.6,3.5,6.3,5.3,13.3,5.8,20.4,.4,7.1-1.2,14-1.5,21-.7,17.4,4.3,34.6,12.4,50-8.7-15-14.3-32.5-13.8-50.1,.2-6.9,1.7-13.9,1.2-20.8-.7-10.4-4.9-20-12-27.7-9.2-10.7-15.9-23.3-21.3-36.2-8.3-19.4-12.5-40.5-13-61.5-.3-14-.3-28,1.5-42,.4-3.5,1.1-6.9,1.4-10.3,1.3-24.6-12-47.7-28.4-65h0Z"/>
  <path class="cls-3" d="M39.9,391.4c20.5,.5,41-.7,61.2-3.7,15.2-2.2,30.2-5.1,44.6-10.2,14.4-5.1,27.6-13,40.4-21.3,10.6-7.1,20.9-14.7,29.2-24.3l5-5.8c10.1-11.6,20.6-22.8,31.2-34-10,11.7-20.1,23.2-30,35-3,3.5-6.8,8.4-10,11.7-14.7,14.5-32.5,25.4-50.7,35-18.6,9-39.1,13.4-59.5,15.8-20.3,2.6-41,3.3-61.4,1.8h0Z"/>
  <path class="cls-3" d="M245.2,312.6c-15.4,11.3-29.6,24.2-41.9,38.9-12.1,14.7-22.6,30.8-31.8,47.4-3.1,5.6-6.1,11.2-9.1,16.8-2.9,5.6-6.1,11.2-7.9,17.1-3.3,11.8-4.9,25.1-.5,36.9,2.2,5.8,6,10.9,10.3,15.5,4.3,4.7,9,9,13.6,13.4,18.8,17.3,36.7,35.6,52.3,55.9-16.4-19.6-34.5-37.5-53.6-54.5-4.7-4.3-9.5-8.6-13.9-13.3-9.7-10.1-14.4-21.4-13.7-35.4,.3-6.5,1.3-12.9,3.1-19.2,2-6.2,5.2-11.8,8.2-17.5,21.3-41.2,45.5-76,84.9-102h0Z"/>
  <path class="cls-3" d="M141.1,403.6c-14.2,9.7-28.6,19-43.2,27.8-8.6,5.2-20.9,12.4-29.1,17.9-14.2,9.5-27,20.9-39,33.1,14.4-17.8,32.3-32.8,52.1-44.3,19.7-11.6,39.3-23.3,59.2-34.5h0Z"/>
  <path class="cls-3" d="M126.8,92.2c11.8-3.4,23.6-6.9,35.7-9.5,6-1.1,12-2.5,18-3.9,9-2.1,19.4-4.6,27.7,1.2l3.9,2.5c16.8,11,29.6,27.8,38,45.8-10.6-18.6-24.7-35.3-43.2-46.2-7.8-5.3-17.3-2.7-25.8-.9-6,1.3-12,2.6-18.1,3.5-12.2,2.1-24.2,5.1-36.2,7.5h0Z"/>
  <path class="cls-3" d="M126.8,92.2c7.6,6,14.9,7.6,24.4,6.2,14.5-1.8,28.7-5,42.8-8.8,5.9-1.8,12.5-.3,17.8,2.6,15.3,8.8,28.1,21.9,38.2,36.2-7.5-9-15.8-17.2-25-24.4-6.8-5.1-13.8-10.8-22.3-12.3-2.8-.5-5.4-.3-8.2,.5-5.6,1.5-11.4,2.9-17.1,4.1-8.6,1.7-17.3,3.2-26.1,3.9-9.7,.8-17.3-1.1-24.5-8h0Z"/>
  <path class="cls-3" d="M128.7,134.8c14.5,15.8,33.6,22.8,54.8,22.7,6.8,0,13.6-.8,20.4-2.1-6.5,2.3-13.4,3.7-20.4,4.1-21.1,1.3-42.6-6.7-54.8-24.7h0Z"/>
  <path class="cls-3" d="M60,82.5c1.5,3.6,2.4,7.4,2.6,11.3,.2,3.9-.4,7.9-1.3,11.7-2,7.6-5.4,14.7-9.3,21.4-7.9,13.4-18.1,25.4-30.2,35,5.3-5.6,10.4-11.3,15.1-17.4,2.3-3,4.6-6.1,6.7-9.3,2.1-3.2,4.2-6.4,6.1-9.7,3.9-6.6,7.3-13.4,9.6-20.6,1.1-3.6,1.9-7.3,2-11.1,.3-3.8-.3-7.6-1.3-11.3Z"/>
  <path class="cls-3" d="M71.1,187.7c4.4,5.8,7,13,7.9,20.2,2.4,12.3-3.6,19.9-16.1,20.4-2.4,.1-4.9-.1-7.3-.6,4.8-.1,9.6-.7,13.8-2.6,7.4-3.4,8.3-9.6,7.2-16.9-.6-7.2-2.4-13.9-5.5-20.5h0Z"/>
  <path class="cls-3" d="M30.3,204.5c4-.3,8-.1,12,.6,5.1,.6,11,2.6,13.1,7.8,1,1.9,1.4,4.8-1.5,5.3-1.9,.3-3.9-.5-5-2.2-1.1-2.1-.9-3.8-2.1-5.6-1-1.6-2.4-3-4-4.3,2.8,1.2,5.5,3.3,6.6,6.3,.4,1,.7,1.9,1.1,2.5,.6,.8,2.5,1.4,3.3,.8-.6-3.2-3.2-5.9-6.3-7.1-5.5-2-11.4-2.9-17.2-4.1h0Z"/>
  <path class="cls-3" d="M18,254.1c5.6,1.9,11,4.4,16.1,7.3,2.6,1.5,5,3.1,7.5,4.8,2.4,1.7,4.7,3.6,7,5.5,4.5,3.8,8.9,7.5,13.6,11s9.5,6.7,14.5,9.9c-5.4-2.3-10.6-5.1-15.6-8.3-2.5-1.6-4.9-3.3-7.3-5.1-2.3-1.8-4.6-3.7-6.8-5.6-4.4-3.8-9.1-7.3-13.9-10.5-4.9-3.3-10-6.2-15.1-9h0Z"/>
  <path class="cls-3" d="M29.7,274.9c8.1,1.2,15.9,4.2,23.2,7.8,7.3,3.7,14.7,6.4,22.5,8.9-8.2-.5-16.2-3-23.6-6.6-7.2-3.8-14.5-7-22.1-10.1h0Z"/>
  <path class="cls-3" d="M30.9,302.9c7.5-.3,15-1,22.3-2.9,7.3-1.8,14.1-4.9,20.7-8.5-11.1,10.8-28,14.7-43,11.4h0Z"/>
  <path class="cls-3" d="M266,305.2c-5.6,.2-4.6,7.6-4.6,11.6,.1,4.9,.1,9.8,0,14.6-.2,9.8-.6,19.5-1.8,29.3-.8-9.8-.8-19.5-.7-29.3,.1-4.9,.3-9.8,.6-14.6,.1-4.1,.4-12.6,6.5-11.6h0Z"/>
  <g>
    <path class="cls-1" d="M248.8,363.1c-8.1,4.9-8.4,14.4-8.4,14.8,0,1.7,.2,5.8,2.9,9.8,3.9,5.7,10,7,11.6,7.3,1.7,.3,10.9,1.8,17.1-5.1,4.5-5,5.4-12.1,3.2-17.7-1.7-4.3-4.8-6.6-5.9-7.5-4.8-3.4-13.2-6-20.5-1.6h0Z"/>
    <path class="cls-3" d="M248.8,363.1c-10.2,6.3-11,22.3-.3,28.5,7.4,4.3,18.4,3.5,23.6-3.7,3.9-5.2,4.5-12.9,.9-18.5-4.9-7.6-16.2-11.2-24.2-6.3h0Zm0,0c8.1-4.9,19.5-1.9,25.2,5.5,2.9,3.9,3.9,9.1,3,13.9-2.6,13.5-18.7,17.8-29.4,10.5-10.7-7.1-9.4-23.4,1.2-29.9h0Z"/>
  </g>
  <path class="cls-3" d="M288.3,280.6c.8,0,.7-1.3-.1-1.3-.8,.1-.8,1.3,.1,1.3h0Z"/>
  <path class="cls-3" d="M288.4,254.5c2.2-2.3,4.7-4.2,7.5-5.7,2.7-1.3,5.5-2.3,7.6-4.5,1.2-1.1,1.9-2.3,3.2-3.4,3.9-3.1,9.1-3.6,13.9-3.3-4.3,1.3-8.9,2.1-12.3,5.1-1,1-1.9,2.5-3,3.5-2.3,2.3-5.5,3.5-8.5,4.4-2.9,1.1-5.7,2.5-8.4,3.9h0Z"/>
  <path class="cls-3" d="M224.8,10.7c16.3,8.6,32.1,20.9,38.8,38.7,2.2,5.9,3.1,12.2,3.9,18.3,.7,6.1,1.5,12.2,3.1,18.1,1.5,5.9,4,11.5,6.4,17.2,3.4,8.2,7.3,17.4,10.5,25.8,2.2,5.8,4.4,11.7,5.6,17.8,1.2,6.2,1.6,12.5,1.3,18.8-.2,3.2-.9,6.3-1.7,9.3-3.2,12-7.5,23.7-11.3,35.3-2,5.8-2.8,11.8-2.5,18,.2,3.2,.5,10.9,3.9,11.5,1.2-.2,2.6-1.3,3.7-2,2.5-1.8,5.1-3.5,7.7-5.2,5.2-3.4,10.7-6.6,17-7.1,3.1-.3,6.2-.2,9.3,.1-6.1-.4-12.5,.2-18,2.9-5.4,2.9-10.4,6.6-15.3,10.3-8.1,7.2-9.6-4.5-9.9-10.4-1.2-12.6,4.3-24.5,7.9-36.3,2.6-8.7,6-17.5,6.8-26.6,.2-3,.1-6.1-.1-9.1-.5-9.2-3.4-18-6.7-26.5-3.2-8.4-6.9-17.5-10.3-25.8-3.7-8.6-7.1-17.4-8.3-26.7-1.3-9.1-1.4-18.5-4.5-27.2-6.3-17.7-21.6-30.1-37.3-39.2h0Z"/>
  <path class="cls-3" d="M298.54,304.04c-1,6-1.8,12-2.2,18.1-.4,6-.4,12.1,.3,18.1,.3,3,.8,6,1.4,8.9,.7,2.9,1.5,5.8,2.7,8.6,1.1,2.8,2.4,5.5,4.1,8,1.6,2.5,3.5,4.9,5.3,7.4l10.7,14.8c1.8,2.5,3.6,4.9,5.4,7.3s3.7,4.8,5.5,7.4c3.5,5.1,6.3,10.6,8.3,16.5,1,2.9,1.8,5.9,2.4,8.9,.7,3,1.2,6,1.6,9,.9,6,1.5,12.1,2.5,18,.3,1.5,.5,3,.9,4.4,.4,1.5,.7,2.9,1.3,4,.4,.7,.7,1.5,1,2.2,.3,.8,.5,1.5,.7,2.2,.4,1.5,.8,3,1.1,4.5,1.2,6.1,1.3,12.3,.7,18.5-.6,6.1-1.9,12.2-4,18-1,2.9-2.3,5.7-2.9,8.5-.7,2.8-.8,5.8-.5,8.8,.1,.7,.1,1.5,.3,2.2l.4,2.2c.2,.7,.4,1.4,.6,2.2,.2,.7,.4,1.4,.6,2.1l.7,2.1c.3,.7,.6,1.4,.9,2.1,.3,.7,.6,1.4,.9,2.1l1,2c5.5,10.8,13.2,20.3,21.2,29.4-4.2-4.4-8.4-8.8-12.1-13.6-3.8-4.8-7.3-9.8-10.2-15.2l-1.1-2c-.4-.7-.6-1.4-1-2.1-.3-.7-.6-1.4-.9-2.1l-.8-2.2c-.3-.7-.5-1.5-.7-2.2s-.5-1.5-.6-2.2l-.5-2.3c-.2-.8-.2-1.5-.3-2.3-.4-3.1-.3-6.3,.4-9.3,.3-1.5,.8-3,1.3-4.5,.5-1.4,1-2.9,1.5-4.3,1.9-5.7,3.1-11.6,3.6-17.6s.4-12-.8-17.8c-.3-1.5-.6-2.9-1-4.3-.2-.7-.4-1.4-.7-2.1-.2-.7-.5-1.2-.9-1.9-.8-1.5-1.2-3.1-1.5-4.6-.4-1.5-.7-3-.9-4.5-1.1-6-1.7-12.1-2.6-18.1-.4-3-.9-6-1.5-8.9-.6-3-1.3-5.8-2.3-8.7-1.9-5.6-4.6-11-7.9-16-1.7-2.5-3.6-4.8-5.4-7.3s-3.6-4.9-5.4-7.4c-3.5-4.9-7-9.9-10.5-14.9-1.7-2.5-3.5-4.9-5.2-7.5s-3-5.4-4.1-8.3-1.9-5.9-2.6-8.9c-.6-3-1-6-1.3-9.1-.5-6.1-.3-12.2,.3-18.3,.5-6,1.6-12,2.8-18h0Z"/>
  <path class="cls-3" d="M314.9,280c-2.2,19.9-2.8,43.2,8.8,60.4,9.1,11.8,18.6,23.4,28.1,34.9,12.7,15.5,14.4,31.8,17.9,50.6,.8,3.5,1.4,7.2,2.9,10.4,1.2,1.9,2,4.3,2.6,6.4,3.4,11.7,3.1,24.3,.2,36.1-1.3,5.8-4,11.3-4.5,17.2-.3,2.9-.3,5.9,0,8.8,1.7,14.9,8.9,28.4,16.8,40.9-8.5-12.3-16.2-25.8-18.2-40.8-.3-3-.4-6.1-.2-9.1,.4-6.1,3-11.7,4.2-17.5,2.5-11.4,2.9-23.7-.5-34.9-.4-1.4-.9-2.8-1.5-4.1-.6-1.2-1.6-2.8-2-4.1-1-2.9-1.7-5.9-2.3-8.8-3.6-18.2-5.1-34.6-17.4-49.7-9.5-11.5-18.9-23.3-27.8-35.3-11.4-18-10.2-41-7.1-61.4h0Z"/>
  <path class="cls-3" d="M269.5,13.8c10.7,3.6,20.9,9,29.7,16.1,4.4,3.6,8.4,7.8,11.8,12.4,3.3,4.6,5.9,10,7.6,15.4,1.7,5.5,2.9,11,3.6,16.7,.7,5.7,.2,11.5-.4,17.1-.3,2.8-.4,5.5-.1,8.3,.2,2.7,.8,5.5,1.6,8.1,1.5,5.3,4.2,10.3,7.5,14.9-3.7-4.2-6.7-9.1-8.7-14.5-1-2.7-1.6-5.5-2-8.3-.4-2.9-.3-5.8-.2-8.6,.2-2.8,.4-5.6,.4-8.4,0-1.4,0-2.8-.1-4.2,0-1.4-.2-2.7-.4-4.1-.7-5.5-1.9-11-3.6-16.2-3.1-10.7-9.9-19.8-18.3-27.1-8.4-7.2-18.2-13-28.4-17.6h0Z"/>
  <path class="cls-3" d="M41.6,73.1c2.9,3.1,6.5,5.6,10.6,6.2,2,.3,4.1,.3,6-.1,.9-.2,1.9-.6,2.3-1.1,.4-.5,.4-1.1,.1-2-.7-1.7-2.2-3.4-3.4-5-1.3-1.7-2.7-3.3-4.1-4.9-2.8-3.2-5.7-6.3-8.8-9.3,3.5,2.4,6.8,5.2,9.9,8.2,1.5,1.5,3,3.1,4.4,4.7,.7,.8,1.4,1.7,2,2.5,.7,.9,1.3,1.8,1.8,2.9,.2,.6,.4,1.2,.4,2s-.3,1.5-.8,2.1-1.1,.9-1.6,1.2c-.6,.3-1.2,.4-1.7,.5-2.3,.4-4.5,.3-6.7-.2s-4.2-1.6-6-2.9c-1.8-1.4-3.3-3-4.4-4.8h0Z"/>
  <path class="cls-3" d="M85.3,278.2c7.7,5.6,8.5,15,1.4,21.6-.8,.7-1.9,1.7-2.7,2.2,7.9-7.4,9.3-15.8,1.3-23.8h0Z"/>
  <path class="cls-3" d="M128.9,134.6c19.6-7.5,43.3-7.4,61.3,4,6,3.8,11.2,8.8,15.3,14.4-4.7-5.1-10.1-9.7-16.1-13.1-18.2-10.5-40.6-10.6-60.5-5.3h0Z"/>
  <path class="cls-3" d="M124.8,131.7c10.6-6.1,23.4-7.3,35.4-6.2,1.7,.2,3.4,.4,5.2,.7-1.7,0-3.5-.2-5.2-.2-12-.3-24.3,.8-35.4,5.7h0Z"/>
  <path class="cls-3" d="M123.3,131.7c-5.4,1.4-7.3-5.5-6.6-9.6,.1-.6,.2-1.3,.3-1.9,.1,1.3,.2,2.5,.3,3.8,.4,3.4,1.9,7.7,6,7.7h0Z"/>
  <path class="cls-3" d="M186.7,130.5c7.5,3.3,14.5,8.4,19.5,14.9,1.6,2.1,3.2,5,4,7.2,4.4,5.2,11.5,.1,15.3-3.4l1.9-1.8-1.7,2c-3.8,4.2-11.5,9.6-16.2,3.8-1.1-2.5-2.4-4.9-4-7.1-5-6.7-11.7-11.7-18.8-15.6h0Z"/>
  <path class="cls-3" d="M122.1,135.2c-4.3-2-5.9,2-6.6,5.5-.3,1.6-.6,3.3-.9,4.9-.1-1.3-.2-2.7,0-4,.2-2.4,.8-5,2.7-6.6,1.3-1.4,3.6-1.1,4.8,.2h0Z"/>
  <path class="cls-3" d="M207.9,155.6c2.8,.9,5.4,2.1,8.1,3.2,2.4,1,5.5,2.7,8,3.3-2.9,0-5.7-1.4-8.4-2.4-2.6-1.2-5.2-2.5-7.7-4.1h0Z"/>
  <path class="cls-4" d="M134,141.2s4.1,2.6-9.1,5.7"/>
  <path class="cls-4" d="M141,146.5s5.4,5.1-9.6,8"/>
  <path class="cls-4" d="M149.5,151.7s-.9,5.3-10,8.8"/>
  <path class="cls-4" d="M158.7,155.4s.3,5.1-7.3,11.1"/>
  <path class="cls-4" d="M166.9,157.6s-2,6.1-1.3,12"/>
  <path class="cls-4" d="M175.9,158.7s-2.3,3.7,1.8,12"/>
  <path class="cls-4" d="M183.3,158.9s-3.1,3.1,5.4,11.2"/>
  <path class="cls-4" d="M192.3,157.9s-2.3,3.4,8.3,10.8"/>
  <path class="cls-3" d="M202.2,153.2c-5.2-4.8-11.2-8.8-17.7-11.8,7,1.7,13.5,6,17.7,11.8h0Z"/>
  <path class="cls-3" d="M131.9,136.3c3.6-1.6,7.5-2.5,11.4-2.4-3.7,1.2-7.4,2.1-11.4,2.4h0Z"/>
  <path class="cls-3" d="M181,164.7c6.3,.1,12.6-.6,18.6-2.4,1.8-.5,4.4-1.6,5.7-2.1,3.7-2.2,6.7,2.7,8.1,5.4,.5,1,1,2.1,1.4,3.1-.6-1-1.1-2-1.7-3-1.4-2.1-4.4-6.7-7.3-4.8-7.7,3.8-16.5,4.8-24.8,3.8h0Z"/>
</svg>