<?xml version="1.0" encoding="UTF-8"?>
<svg id="Layer_3" data-name="Layer 3" xmlns="http://www.w3.org/2000/svg" viewBox="0 0 450 600">
  <defs>
    <style>
      .cls-1 {
        fill: #f2b7d3;
      }

      .cls-2 {
        fill: #fef8fb;
      }

      .cls-3 {
        fill: #a03a00;
      }

      .cls-4 {
        fill: none;
        stroke: #a03a00;
        stroke-miterlimit: 10;
      }
    </style>
  </defs>
  <rect class="cls-2" width="450" height="600"/>
  <path class="cls-3" d="M245.76,301.86c-.81,10.94,7.65,20.06,18.37,20.63,5.08,.25,10.11-1.52,14.69-3.64,9.16-4.68,16.37-12.85,22.56-20.99,3.13-4.19,6-8.66,9.28-12.86,6.48-8.44,14.07-16,22.45-22.44-7.69,7.25-14.78,15.08-20.87,23.62-6.04,8.63-11.55,17.98-19.35,25.26-4.72,4.66-10.35,8.98-16.83,11.07-3.85,1.32-7.92,2.36-12.07,1.93-11.38-.98-20.21-11.22-18.22-22.59h0Z"/>
  <path class="cls-3" d="M268.36,282.64c-.28-4.64,2.6-9.89,7.2-11.56,4.16-1.57,7.14-4.5,9.42-8.3,1.49-2.51,2.61-5.26,3.38-8.24,.29,3.07-.35,6.25-1.62,9.13-1.84,4.39-5.7,8.19-10.27,9.6-4.32,1.39-6.7,5.05-8.11,9.35h0Z"/>
  <path class="cls-3" d="M268.36,282.64c9.33-.6,19.1-2.41,26.52-8.3,3.75-2.76,6.95-6,7.49-10.75,.61-4.62-.98-9.32-3.23-13.41,1.62,1.8,2.93,3.91,3.87,6.2,4.67,11.44-3.3,19.18-13,23.78-6.78,2.84-14.46,3.6-21.65,2.47h0Z"/>
  <path class="cls-3" d="M318.1,258.65c-1.12,7.86-5.47,14.97-11.05,20.5-5.47,5.56-10.81,11.1-16.84,16.07,4.45-6.25,9.7-12.27,15.01-17.82,5.59-5.44,9.79-11.59,12.88-18.76h0Z"/>
  <path class="cls-3" d="M286.69,110.24c21.67,18.79,35,47.14,35.22,75.94-.1,6.37-.67,13.43-.81,19.79-.32,8.78,.2,17.49,1.38,26.16,.52,4.33,1.48,8.41,3.45,12.31,2.89,5.78,6.68,11.53,8.81,17.86,1.45,4.27,1.91,8.94,1.88,13.36,0,4.36,1.17,8.37,2.73,12.42,4.37,12.51,11.82,23.68,16.1,36.23,2.6,9.54,3.24,18.47,4.43,27.76,1.38,5.74,4.62,10.79,8,15.65,3.63,5.19,8.22,10.48,12.38,15.29,20.68,22.49,7.68,44.69,16.4,69.48,5.99,16.69,20.57,28.83,36.52,35.66-16.35-6.4-31.28-18.49-37.69-35.23-6.71-16.55-1.44-35.36-6.9-52.03-2.61-8.48-8.52-14.89-14.3-21.45-2.87-3.36-5.65-6.81-8.25-10.42-3.8-5.45-7.74-11.44-8.74-18.19-.66-6.59-1.42-13.04-2.74-19.51-.76-4.26-1.9-8.39-3.78-12.31-3.62-8.03-7.91-15.73-11.3-23.9-2.48-6.2-5.31-12.59-5.26-19.41,.2-6.57-1.22-12.81-4.18-18.64-2.75-5.88-6.88-11.51-8.54-18.04-1.52-6.54-1.99-13.19-2.43-19.85-.48-10.96,.71-22.1,1.13-33.03,.09-28.52-12.58-56.63-33.54-75.92h.03Z"/>
  <path class="cls-3" d="M279.26,84.76c2.79,6.63,6.53,12.85,11.08,18.37,4.5,5.66,10.48,9.87,15,15.52,13.64,16.84,23.17,37.43,25.72,59.06,.77,7.22,.65,14.5,.41,21.72-2.41,50.15,17.54,35.29,17.22,71.78,.15,7.02,3.41,13.55,9.3,17.42,1.43,1.01,2.98,1.94,4.48,3.06,4.48,3.36,7.81,8.2,9.73,13.41,3.8,10.27,3.53,21.5,5.35,32.05,3.67,21.41,17.73,39.37,33.6,53.53-51.36-43.41-27.31-70.11-46.21-93.72-2.31-2.74-5.24-4.5-8.23-6.5-4.71-3.12-8.29-8.05-9.6-13.58-1.28-5.32-.66-10.97-1.42-16.23-.42-3.47-1.43-6.8-2.95-9.91-3.29-6.26-8.38-11.95-10.59-18.92-5.98-17.46-1.32-36-3.26-53.89l-.7-5.29-1.01-5.25c-3.82-17.42-11.76-33.97-22.8-47.98-4.36-5.74-10.24-10.1-14.57-15.88-4.48-5.68-8.03-12.06-10.56-18.79h.02Z"/>
  <path class="cls-3" d="M368.55,78.25c3.62,6.16,6.55,12.81,8.02,19.87,.76,3.52,1.13,7.12,1.1,10.74s-.5,7.21-1.22,10.74c-.71,3.53-1.65,6.99-2.45,10.46-.81,3.46-1.52,6.94-1.6,10.43-.09,3.48,.57,6.93,2.14,9.98,.4,.75,.77,1.55,1.25,2.21,.45,.63,1.11,1.33,1.66,2.05,.58,.71,1.08,1.47,1.6,2.22,.51,.76,1.07,1.48,1.5,2.28,1.96,3.09,3.45,6.45,4.64,9.9,1.16,3.46,1.92,7.03,2.53,10.58,1.19,7.11,1.79,14.23,4.02,20.88,1.13,3.3,2.51,6.51,4.5,9.31,1.96,2.82,4.58,5.05,7.42,7.16,2.85,2.09,5.86,4.38,8.18,7.35,2.33,2.94,4.04,6.3,5.25,9.76,1.18,3.48,2.07,7.08,2.35,10.78,.28,3.7-.12,7.42-.7,10.96-.57,3.55-1.18,7.02-1.26,10.49-.07,3.47,.24,6.95,1.13,10.33,.16,.85,.44,1.69,.7,2.53,.26,.83,.47,1.69,.79,2.5,.59,1.63,1.25,3.24,2.06,4.78,1.56,3.12,3.62,5.98,5.58,9.01,1,1.51,1.92,3.11,2.74,4.75,.8,1.66,1.49,3.39,1.99,5.18,.27,.89,.43,1.79,.64,2.69l.43,2.72c.22,1.76,.47,3.52,.75,5.28,.56,3.52,1.24,7.01,1.93,10.52,.34,1.76,.71,3.52,.95,5.34,.22,1.87,.29,3.58,.48,5.37,.64,7.1,1.62,14.18,2.76,21.22,2.22,14.11,5.3,28.08,8.56,42.02-3.82-13.79-7.14-27.72-9.79-41.81-1.28-7.05-2.35-14.14-3.12-21.27-.22-1.76-.32-3.63-.55-5.3-.26-1.72-.64-3.46-1.01-5.21-.75-3.49-1.5-7-2.13-10.55-.31-1.77-.59-3.55-.85-5.33l-.45-2.57c-.22-.84-.38-1.69-.65-2.51-.49-1.66-1.12-3.26-1.89-4.81-.79-1.54-1.66-3.04-2.64-4.51-1.93-2.95-4.09-5.9-5.74-9.19-.86-1.62-1.57-3.33-2.2-5.05-.33-.85-.56-1.74-.84-2.61-.26-.88-.57-1.73-.74-2.64-.95-3.54-1.31-7.25-1.25-10.92,.07-3.69,.69-7.29,1.23-10.8,.55-3.5,.91-6.96,.62-10.4-.26-3.44-1.13-6.82-2.25-10.11-1.13-3.29-2.71-6.38-4.81-9.07-2.09-2.71-4.81-4.82-7.71-6.97-2.87-2.15-5.77-4.64-7.89-7.73-2.15-3.07-3.59-6.5-4.76-9.96-2.29-6.99-2.85-14.25-3.99-21.23-1.11-6.98-3.01-13.83-6.66-19.83-.41-.78-.94-1.47-1.41-2.21-.49-.73-.96-1.47-1.5-2.16-.52-.71-1.1-1.32-1.68-2.14-.57-.8-.94-1.64-1.36-2.47-1.65-3.35-2.3-7.14-2.14-10.81,.15-3.68,.94-7.24,1.81-10.71,.88-3.48,1.85-6.92,2.63-10.38,.8-3.46,1.35-6.98,1.48-10.51,.12-3.54-.15-7.09-.81-10.58-.63-3.49-1.64-6.93-2.9-10.27-1.25-3.34-2.76-6.58-4.47-9.73v-.04Z"/>
  <path class="cls-3" d="M322.99,26.3c17.3,16.84,31.17,40.17,29.96,65.06-.74,7-1.82,13.79-2.07,20.8-.72,17.34-.92,34.82,1.58,52.02,3.07,20.55,10.02,40.52,20.11,58.68,3.35,6.06,7.33,11.69,11.8,17.03,2.21,2.68,4.49,5.45,6.26,8.59,3.49,6.26,5.35,13.29,5.78,20.41,.39,7.06-1.17,13.98-1.5,20.96-.75,17.4,4.28,34.64,12.41,49.99-8.72-15.03-14.3-32.49-13.84-50.06,.22-6.95,1.65-13.87,1.16-20.79-.69-10.39-4.95-20.03-11.97-27.71-9.19-10.66-15.92-23.29-21.34-36.23-8.28-19.41-12.48-40.45-13.01-61.52-.27-14.02-.27-28.04,1.47-41.98,.43-3.49,1.06-6.93,1.41-10.34,1.5-24.53-11.76-47.59-28.2-64.91h0Z"/>
  <path class="cls-3" d="M39.86,391.37c20.48,.46,40.96-.67,61.21-3.7,15.16-2.15,30.2-5.08,44.63-10.25,14.42-5.11,27.6-13.01,40.44-21.27,10.57-7.06,20.92-14.66,29.21-24.33l5.05-5.8c10.07-11.63,20.63-22.81,31.17-34.01-9.96,11.72-20.13,23.22-29.96,35.05-3.05,3.54-6.82,8.44-10.04,11.72-14.73,14.55-32.5,25.39-50.74,35.01-18.61,9.03-39.1,13.4-59.51,15.8-20.36,2.6-41,3.31-61.46,1.78h-.01Z"/>
  <path class="cls-3" d="M245.2,312.6c-15.41,11.33-29.63,24.24-41.93,38.87-12.15,14.69-22.61,30.78-31.84,47.44-3.06,5.58-6.09,11.21-9.1,16.82-2.9,5.56-6.06,11.17-7.92,17.12-3.3,11.83-4.93,25.14-.53,36.86,2.24,5.78,6.01,10.88,10.26,15.53,4.26,4.68,8.96,9.02,13.56,13.37,18.79,17.26,36.73,35.63,52.29,55.9-16.38-19.6-34.52-37.55-53.6-54.47-4.73-4.29-9.48-8.58-13.86-13.32-9.67-10.07-14.42-21.37-13.66-35.44,.27-6.5,1.32-12.89,3.12-19.16,2-6.23,5.19-11.81,8.21-17.53,21.42-41.21,45.62-75.98,84.99-101.99h.01Z"/>
  <path class="cls-3" d="M141.13,403.61c-14.16,9.66-28.57,18.95-43.22,27.83-8.59,5.25-20.88,12.39-29.09,17.94-14.18,9.53-27,20.86-38.99,33.06,14.42-17.82,32.33-32.76,52.12-44.31,19.68-11.64,39.26-23.3,59.18-34.52h0Z"/>
  <path class="cls-3" d="M126.8,92.19c11.84-3.38,23.57-6.94,35.65-9.5,6.03-1.1,11.97-2.49,17.96-3.87,8.97-2.13,19.43-4.58,27.66,1.15l3.87,2.53c16.84,11.02,29.6,27.75,38.04,45.81-10.58-18.57-24.75-35.3-43.22-46.24-7.78-5.26-17.31-2.75-25.83-.91-6,1.25-12.04,2.6-18.12,3.48-12.02,2.16-23.98,5.22-36,7.57h-.01Z"/>
  <path class="cls-3" d="M126.8,92.19c7.62,6.03,14.9,7.59,24.38,6.16,14.48-1.81,28.68-4.99,42.78-8.81,5.89-1.75,12.52-.3,17.8,2.57,15.32,8.83,28.06,21.89,38.21,36.18-7.54-8.95-15.81-17.25-24.95-24.42-6.84-5.06-13.78-10.83-22.27-12.33-2.81-.47-5.4-.35-8.18,.46-5.63,1.47-11.36,2.94-17.1,4.12-8.64,1.75-17.34,3.21-26.15,3.9-9.74,1-17.32-.96-24.53-7.81h0v-.02Z"/>
  <path class="cls-3" d="M128.72,134.83c14.45,15.8,33.62,22.84,54.76,22.74,6.81,0,13.63-.82,20.41-2.13-6.5,2.35-13.38,3.73-20.35,4.11-21.17,1.29-42.65-6.8-54.81-24.72h0Z"/>
  <path class="cls-3" d="M60.04,82.45c1.48,3.57,2.39,7.39,2.63,11.32,.2,3.94-.39,7.87-1.34,11.66-1.97,7.61-5.45,14.67-9.33,21.38-7.88,13.39-18.12,25.39-30.18,35.03,5.32-5.59,10.42-11.32,15.13-17.36,2.33-3.04,4.62-6.1,6.75-9.28,2.15-3.16,4.23-6.37,6.13-9.68,3.86-6.57,7.34-13.4,9.62-20.63,1.08-3.62,1.9-7.33,2-11.11,.1-3.77-.46-7.61-1.4-11.33Z"/>
  <path class="cls-3" d="M71.09,187.69c4.42,5.77,6.99,13.01,7.93,20.2,2.41,12.31-3.61,19.86-16.12,20.42-2.45,.08-4.89-.09-7.26-.61,4.8-.08,9.63-.71,13.8-2.59,7.39-3.35,8.27-9.63,7.21-16.91-.64-7.17-2.49-13.93-5.56-20.51h0Z"/>
  <path class="cls-3" d="M30.3,204.5c4-.29,8.04-.06,12.02,.56,5.08,.57,11.03,2.56,13.1,7.82,1.05,1.92,1.38,4.81-1.55,5.28-1.92,.26-3.93-.51-4.97-2.16-1.12-2.06-.89-3.77-2.15-5.59-.97-1.62-2.41-3-3.96-4.27,2.78,1.17,5.45,3.33,6.63,6.26,.41,.98,.66,1.93,1.11,2.49,.58,.82,2.45,1.39,3.27,.83-.61-3.19-3.25-5.89-6.34-7.09-5.45-1.99-11.38-2.98-17.16-4.15h0v.02Z"/>
  <path class="cls-3" d="M17.96,254.07c5.59,1.88,10.97,4.36,16.1,7.32,2.58,1.45,5.05,3.09,7.49,4.79,2.42,1.71,4.73,3.58,7.01,5.46,4.47,3.84,8.89,7.55,13.6,11,4.7,3.46,9.54,6.74,14.48,9.94-5.44-2.27-10.64-5.12-15.6-8.32-2.5-1.58-4.9-3.32-7.26-5.11-2.34-1.81-4.6-3.73-6.85-5.59-4.43-3.79-9.05-7.29-13.9-10.51-4.85-3.22-9.9-6.17-15.06-8.99h0Z"/>
  <path class="cls-3" d="M29.73,274.89c8.12,1.2,15.9,4.16,23.21,7.8,7.26,3.65,14.74,6.39,22.5,8.88-8.21-.5-16.24-3.01-23.61-6.61-7.27-3.73-14.56-6.92-22.11-10.07h0Z"/>
  <path class="cls-3" d="M30.94,302.94c7.54-.34,15.02-1.03,22.29-2.87,7.31-1.79,14.1-4.86,20.71-8.52-11.12,10.77-28.05,14.62-43.01,11.38h.01Z"/>
  <path class="cls-3" d="M265.99,305.16c-5.6,.21-4.62,7.62-4.65,11.61,.1,4.88,.06,9.77,0,14.65-.24,9.78-.63,19.55-1.84,29.28-.83-9.76-.83-19.52-.68-29.3,.12-4.88,.28-9.76,.56-14.64,.21-4.11,.57-12.6,6.61-11.6h0Z"/>
  <g>
    <path class="cls-1" d="M248.77,363.11c-8.05,4.86-8.37,14.38-8.38,14.81-.03,1.7,.16,5.81,2.89,9.83,3.87,5.69,9.98,6.95,11.62,7.26,1.68,.32,10.87,1.83,17.11-5.11,4.52-5.02,5.38-12.12,3.2-17.68-1.69-4.31-4.8-6.64-5.94-7.48-4.78-3.49-13.21-6.03-20.49-1.63h-.01Z"/>
    <path class="cls-3" d="M248.77,363.11c-10.22,6.27-11,22.32-.28,28.49,7.39,4.28,18.35,3.49,23.6-3.74,3.93-5.23,4.49-12.88,.87-18.49-4.89-7.56-16.21-11.13-24.19-6.25h0Zm0-.01c8.14-4.91,19.54-1.93,25.24,5.53,2.9,3.88,3.94,9.07,2.97,13.88-2.62,13.5-18.71,17.81-29.42,10.53-10.71-7.16-9.37-23.41,1.21-29.94h0Z"/>
  </g>
  <path class="cls-3" d="M288.25,280.61c.81-.04,.75-1.3-.06-1.26s-.75,1.3,.06,1.26h0Z"/>
  <path class="cls-3" d="M288.35,254.54c2.16-2.28,4.69-4.22,7.53-5.7,2.66-1.27,5.5-2.27,7.59-4.46,1.21-1.06,1.87-2.33,3.16-3.44,3.92-3.11,9.14-3.57,13.85-3.32-4.31,1.29-8.92,2.15-12.26,5.1-.99,.97-1.9,2.48-3.01,3.48-2.33,2.35-5.45,3.48-8.53,4.44-2.81,1.06-5.53,2.47-8.33,3.91h0Z"/>
  <path class="cls-3" d="M224.82,10.66c16.26,8.61,32.12,20.9,38.78,38.65,2.23,5.89,3.15,12.16,3.87,18.28,.72,6.14,1.55,12.2,3.12,18.1,1.52,5.9,4.04,11.47,6.41,17.21,3.44,8.22,7.26,17.42,10.52,25.79,2.24,5.83,4.4,11.69,5.61,17.84,1.16,6.19,1.61,12.47,1.26,18.75-.18,3.2-.89,6.32-1.66,9.32-3.24,12.02-7.46,23.67-11.31,35.34-1.95,5.82-2.8,11.82-2.47,17.95,.23,3.17,.48,10.86,3.94,11.47,1.21-.16,2.58-1.29,3.67-2.01,2.54-1.77,5.1-3.51,7.72-5.17,5.18-3.4,10.73-6.63,17.04-7.1,3.09-.32,6.21-.24,9.28,.09-6.14-.42-12.49,.2-17.98,2.93-5.39,2.94-10.37,6.63-15.34,10.25-8.09,7.19-9.56-4.5-9.94-10.39-1.16-12.63,4.27-24.48,7.88-36.27,2.62-8.74,6.02-17.49,6.81-26.58,.16-3.02,.1-6.07-.12-9.11-.53-9.2-3.42-17.95-6.71-26.5-3.19-8.36-6.93-17.52-10.32-25.76-3.66-8.57-7.05-17.41-8.26-26.72-1.33-9.11-1.39-18.53-4.52-27.2-6.3-17.61-21.58-30.01-37.28-39.2h0v.02Z"/>
  <path class="cls-3" d="M294.96,311.25c-.96,6-1.77,12.02-2.18,18.07-.36,6.05-.35,12.12,.29,18.12,.29,3,.8,5.97,1.43,8.91,.72,2.91,1.51,5.82,2.67,8.58,1.13,2.77,2.43,5.47,4.08,7.95,1.62,2.46,3.53,4.89,5.3,7.35l10.68,14.77c1.78,2.46,3.57,4.9,5.39,7.33,1.79,2.43,3.71,4.79,5.46,7.35,3.5,5.09,6.32,10.65,8.33,16.51,1.01,2.93,1.77,5.94,2.41,8.93,.66,2.99,1.17,6.04,1.61,9.05,.85,6.04,1.47,12.08,2.49,18.02,.26,1.48,.54,2.95,.88,4.4,.35,1.45,.67,2.9,1.29,4.04,.37,.66,.74,1.51,.99,2.25,.26,.76,.48,1.49,.7,2.24,.43,1.5,.78,3.01,1.07,4.53,1.16,6.1,1.29,12.34,.71,18.47-.56,6.13-1.87,12.21-3.98,18-1,2.9-2.3,5.67-2.94,8.51-.68,2.85-.81,5.83-.54,8.78,.1,.73,.12,1.48,.27,2.21l.42,2.19c.16,.73,.38,1.44,.57,2.17,.18,.72,.39,1.44,.65,2.14l.74,2.12c.26,.7,.58,1.38,.87,2.08,.3,.69,.57,1.39,.9,2.06l1,2.02c5.46,10.79,13.2,20.29,21.23,29.38-4.2-4.39-8.38-8.82-12.11-13.64-3.77-4.78-7.3-9.78-10.22-15.17l-1.07-2.03c-.36-.68-.64-1.39-.96-2.09-.31-.7-.64-1.39-.93-2.11l-.8-2.17c-.29-.72-.51-1.45-.72-2.2-.21-.74-.45-1.48-.63-2.23l-.48-2.27c-.17-.76-.22-1.54-.33-2.31-.35-3.09-.27-6.26,.4-9.33,.29-1.55,.82-3.04,1.32-4.48,.51-1.44,1.03-2.86,1.51-4.28,1.93-5.68,3.11-11.59,3.64-17.56,.52-5.96,.36-11.99-.79-17.83-.29-1.46-.63-2.9-1.05-4.33-.21-.7-.43-1.43-.67-2.11-.25-.7-.49-1.25-.86-1.91-.83-1.55-1.16-3.11-1.53-4.6-.36-1.51-.66-3.02-.94-4.53-1.07-6.04-1.74-12.09-2.61-18.08-.41-3-.89-5.95-1.52-8.9-.61-2.95-1.33-5.84-2.28-8.67-1.9-5.65-4.59-11.04-7.94-15.99-1.66-2.46-3.56-4.84-5.36-7.31-1.81-2.45-3.59-4.92-5.36-7.39-3.55-4.94-7-9.94-10.48-14.92-1.73-2.51-3.54-4.89-5.21-7.53-1.66-2.62-2.96-5.44-4.07-8.32-1.14-2.87-1.89-5.86-2.57-8.86-.58-3.01-1.05-6.05-1.27-9.1-.46-6.1-.28-12.22,.27-18.29,.58-6.07,1.62-12.07,2.85-18.02l-.02,.03Z"/>
  <path class="cls-3" d="M314.88,280.01c-2.17,19.89-2.8,43.2,8.79,60.45,9.14,11.76,18.59,23.38,28.1,34.88,12.68,15.48,14.42,31.83,17.94,50.61,.8,3.53,1.43,7.2,2.92,10.44,1.18,1.85,1.99,4.33,2.63,6.43,3.44,11.72,3.07,24.27,.23,36.05-1.32,5.82-4,11.27-4.52,17.23-.31,2.92-.26,5.87,0,8.8,1.68,14.88,8.91,28.42,16.79,40.94-8.48-12.25-16.22-25.78-18.21-40.79-.33-3.02-.43-6.07-.18-9.11,.4-6.06,3-11.65,4.22-17.52,2.48-11.45,2.87-23.67-.54-34.94-.43-1.38-.92-2.81-1.46-4.09-.58-1.24-1.61-2.76-1.97-4.14-.97-2.93-1.65-5.87-2.28-8.82-3.63-18.22-5.13-34.64-17.38-49.68-9.47-11.53-18.89-23.31-27.77-35.32-11.59-18.08-10.43-41.07-7.33-61.43h0Z"/>
  <path class="cls-3" d="M269.47,13.81c10.65,3.65,20.85,8.97,29.72,16.14,4.42,3.59,8.43,7.75,11.8,12.41,3.34,4.65,5.94,9.97,7.6,15.41,1.7,5.45,2.91,11.05,3.56,16.72,.69,5.73,.24,11.51-.36,17.07-.27,2.78-.39,5.53-.14,8.27,.24,2.74,.75,5.48,1.57,8.13,1.55,5.34,4.22,10.34,7.49,14.93-3.71-4.23-6.74-9.15-8.67-14.54-.97-2.68-1.63-5.49-2.03-8.34s-.35-5.77-.18-8.59c.16-2.83,.39-5.61,.42-8.38,.02-1.38,0-2.77-.08-4.15-.05-1.36-.22-2.73-.39-4.11-.7-5.5-1.91-10.96-3.6-16.24-3.1-10.67-9.87-19.77-18.26-27.08-8.42-7.29-18.19-13.02-28.45-17.64h-.01Z"/>
  <path class="cls-3" d="M41.57,73.06c2.89,3.14,6.54,5.59,10.56,6.22,1.98,.29,4.12,.3,6.02-.13,.92-.23,1.85-.57,2.27-1.11,.45-.49,.42-1.13,.07-2-.73-1.7-2.16-3.39-3.44-5.04-1.29-1.67-2.69-3.27-4.07-4.87-2.8-3.18-5.75-6.25-8.76-9.31,3.54,2.42,6.85,5.21,9.9,8.24,1.54,1.51,2.98,3.12,4.39,4.75,.7,.83,1.37,1.66,2.04,2.54,.65,.89,1.3,1.8,1.79,2.93,.23,.57,.42,1.22,.4,1.97-.01,.75-.35,1.52-.83,2.05-.48,.55-1.07,.91-1.63,1.16-.58,.27-1.15,.42-1.73,.54-2.29,.38-4.51,.31-6.72-.2-2.21-.49-4.23-1.56-5.96-2.9-1.72-1.38-3.17-3.02-4.3-4.85h0Z"/>
  <path class="cls-3" d="M85.34,278.18c7.74,5.63,8.47,15.04,1.38,21.59-.77,.68-1.89,1.66-2.73,2.23,7.86-7.38,9.27-15.83,1.35-23.82h0Z"/>
  <path class="cls-3" d="M128.91,134.57c19.57-7.54,43.26-7.45,61.34,4,6.03,3.76,11.16,8.81,15.3,14.44-4.74-5.11-10.06-9.66-16.11-13.11-18.2-10.51-40.64-10.58-60.54-5.34h0Z"/>
  <path class="cls-3" d="M124.8,131.71c10.6-6.08,23.42-7.26,35.41-6.25,1.72,.2,3.44,.44,5.15,.7-1.74-.04-3.46-.18-5.18-.21-11.96-.26-24.32,.87-35.38,5.76h0Z"/>
  <path class="cls-3" d="M123.33,131.66c-5.42,1.39-7.27-5.5-6.56-9.64,.11-.63,.19-1.27,.33-1.89,.13,1.28,.19,2.53,.34,3.76,.3,3.47,1.73,7.8,5.89,7.77h0Z"/>
  <path class="cls-3" d="M186.72,130.47c7.54,3.35,14.46,8.35,19.54,14.91,1.63,2.08,3.2,5.04,4.04,7.18,4.36,5.24,11.49,.13,15.27-3.42,0,0,1.9-1.81,1.9-1.81l-1.75,1.96c-3.76,4.25-11.49,9.59-16.2,3.76-1.07-2.51-2.42-4.88-4.04-7.09-4.95-6.51-11.64-11.54-18.76-15.49h0Z"/>
  <path class="cls-3" d="M122.14,135.16c-4.29-2.03-5.85,2.04-6.62,5.48-.34,1.62-.58,3.25-.92,4.9-.1-1.34-.2-2.7-.04-4.05,.22-2.36,.76-5.04,2.66-6.65,1.41-1.26,3.63-.91,4.91,.31h0Z"/>
  <path class="cls-3" d="M207.92,155.57c2.78,.92,5.43,2.07,8.08,3.22,2.35,.97,5.54,2.7,7.97,3.35-2.95-.03-5.7-1.35-8.37-2.43-2.65-1.19-5.25-2.51-7.68-4.13h0Z"/>
  <path class="cls-4" d="M133.95,141.23s4.13,2.6-9.12,5.71"/>
  <path class="cls-4" d="M141.04,146.5s5.38,5.15-9.62,7.99"/>
  <path class="cls-4" d="M149.46,151.67s-.92,5.34-10.01,8.83"/>
  <path class="cls-4" d="M158.71,155.37s.25,5.08-7.28,11.14"/>
  <path class="cls-4" d="M166.92,157.61s-2,6.06-1.3,12.01"/>
  <path class="cls-4" d="M175.87,158.69s-2.26,3.68,1.82,12.03"/>
  <path class="cls-4" d="M183.33,158.94s-3.11,3.07,5.36,11.23"/>
  <path class="cls-4" d="M192.32,157.87s-2.35,3.43,8.34,10.82"/>
  <path class="cls-3" d="M202.22,153.18c-5.25-4.85-11.19-8.8-17.68-11.78,7,1.66,13.44,5.97,17.68,11.78h0Z"/>
  <path class="cls-3" d="M131.93,136.25c3.6-1.61,7.48-2.48,11.42-2.4-3.73,1.29-7.48,2.12-11.42,2.4h0Z"/>
  <path class="cls-3" d="M180.96,164.71c6.26,.05,12.56-.64,18.57-2.41,1.83-.46,4.41-1.62,5.7-2.14,3.67-2.25,6.72,2.67,8.15,5.39,.54,1.02,.98,2.08,1.42,3.14-.58-.99-1.1-2.01-1.73-2.97-1.41-2.14-4.39-6.7-7.32-4.82-7.61,3.75-16.42,4.81-24.79,3.79h0Z"/>
</svg>