<?xml version="1.0" encoding="UTF-8"?>
<svg id="Lag_1" data-name="Lag 1" xmlns="http://www.w3.org/2000/svg" viewBox="0 0 601.46 697.18">
  <defs>
    <style>
      .cls-1 {
        fill: none;
        stroke: #a03a00;
        stroke-miterlimit: 10;
        stroke-width: 1.5px;
      }

      .cls-2 {
        fill: #f2b7d3;
      }

      .cls-3 {
        fill: #a03a00;
      }
    </style>
  </defs>
  <path class="cls-3" d="M247.49,275.25c6.7,12.8,10.89,26.89,11.87,41.2,.32,4.79,.13,9.57,.27,14.29,.31,14.25,3.74,28.17,8.54,41.64,7.44,22.61,17.11,44.69,30.48,64.72,16.42,23.73,35.03,46.39,56.27,66.44,14.4,13.01,29.39,25.91,46.15,36.16,17.05,9.73,34.65,19.23,53.61,25.17,18.92,5.93,39.57,7.33,59.04,3.07,9.75-2.12,19.2-5.53,28.09-9.99-8.71,4.76-18.09,8.45-27.88,10.8-19.61,4.84-40.61,3.83-59.88-1.96-14.53-4.21-28.13-10.71-41.41-17.57-13.42-6.65-25.97-15.03-37.45-24.36-15.43-12.27-30.17-25.49-43.21-40.11-12.88-14.76-25.07-29.95-35.93-46.12-13.43-20.33-23.08-42.63-30.13-65.6-4.61-13.67-7.92-27.88-7.95-42.29-.01-4.8,.3-9.55,.11-14.27-.6-14.24-4.43-28.27-10.61-41.27v.04Z"/>
  <path class="cls-3" d="M236.07,144.83c-4.91-15.27-12.9-35.21-28.03-43.55-7.98-4.24-16.26-5.24-23.97-.53-11.45,6.83-11.9,21.35-11.63,32.97,.21,10.09,2.12,19.8,4.73,29.57,3.67,14.28,7.4,30.07,10.56,44.36,2.07,10,4.6,19.89,4.8,30.2-1.46,19.59,4.67,41.93,25.57,49.96,9.85,4.05,21.23,4.21,29.93-2.43-8.5,7.2-20.17,7.4-30.41,3.59-21.86-7.43-29.1-31.07-27.96-51.11-.31-9.92-2.97-19.83-5.09-29.57-2.25-9.87-4.53-19.72-6.96-29.53-2.05-8.77-5.5-20.88-6.96-29.68-1.87-13.8-3.55-33.53,5.74-45.19,3.53-4.31,8.92-7.04,14.18-8.16,6.43-1.17,12.97,.85,18.44,3.88,15.29,8.61,23.03,29.59,27.08,45.2h0Z"/>
  <path class="cls-3" d="M186.88,128.33c-.65-5.96,1.46-13.37,9.33-9.81,5.27,2.52,8.95,6.52,12.5,10.47,6.84,8.04,12.31,17.47,14.29,27.68-5.65-11.49-12.94-22.11-22.13-31.29-7.58-7.2-11.87-8.65-14,2.96Z"/>
  <path class="cls-3" d="M194.2,119.36c-.55,7.57-.46,14.92-.72,22.52-.44,7.52-2.71,14.63-2.01,22.15,1.42,14.8,5.2,29.39,8.76,43.89-4.84-10.33-8.02-21.33-10.42-32.39-1.72-7.41-2.45-15.31-.99-22.88,2.76-10.91,2.45-22.4,5.37-33.29Z"/>
  <path class="cls-3" d="M226.5,163.44c4.13,3.08,5.79,8.77,4.16,13.59-2.26,2.97-3.83,6.45-3.9,10.12-.11,3.45,1.57,6.76,3.12,10.43,1.52,3.68,2.52,7.69,2.63,11.67,.13,3.97-.46,7.92-1.67,11.64,.14-3.89,.07-7.72-.56-11.44-.75-5.8-3.53-10.72-5.75-16.13-2.43-5.89-.38-13.07,4.01-17.52l-.2,.35c.86-2,1.15-4.21,.86-6.39-.31-2.25-1.27-4.41-2.69-6.28v-.03Z"/>
  <path class="cls-3" d="M229.08,167.07c-3.6-.08-7.02,.15-10.52,.77-3.08,.51-6.98,1.03-9.19,2.88-1.59,1.17-1.63,2.97-1.51,4.84,.28,4.25,1.58,8.61,2.79,12.76,1.31,4.24,2.94,8.43,4.66,12.65-2.95-3.59-5.3-7.6-7.15-11.83-2.03-5.25-6.78-16.51-.83-20.76,2.32-1.65,4.95-2.17,7.38-2.41,4.81-.44,9.76-.39,14.36,1.09Z"/>
  <path class="cls-2" d="M206.7,358.73c-1.46,.63-5.68,2.52-7.85,7.17-.32,.71-2.48,5.51-.11,10.79,3.28,7.33,12.03,8.32,12.49,8.37,4.35,.41,7.78-1.09,9.47-2.04,1.35-.75,5.09-2.92,6.67-7.35,2.18-6.08-1.52-11.36-2.15-12.24-.69-.96-3.33-4.47-8.4-5.72-4.81-1.19-8.71,.41-10.11,1.03h0Z"/>
  <path class="cls-3" d="M206.7,358.73c-12.01,4.8-11.22,20.91,1.42,24.2,10.78,3.36,22.56-6.56,17.57-17.12-2.8-7.11-11.75-10.53-18.99-7.08Zm0,0c9.69-4.69,21.17,1.89,22.48,11.96,1.66,10.77-11.94,19.11-22.04,14.81-13.21-4.56-13.22-21.84-.45-26.79h.01Z"/>
  <path class="cls-2" d="M213.8,321.19c2.46,2.16,6.62,2.19,9.04-.2,2.04-2.03,2.31-5.28,.65-7.55-2.01-2.75-5.71-2.48-5.94-2.47-.37,.03-3.64,.37-5.15,3.09-1.31,2.37-.61,5.37,1.39,7.13h0Z"/>
  <path class="cls-3" d="M213.8,321.19c5.88,4.59,12.7-2.71,7.67-7.51-5.71-4.23-13.03,2.08-7.67,7.51Zm0,0c-6.85-6.55,2.46-15.52,9.9-9.91,6.88,6.61-2.64,15.79-9.9,9.91Z"/>
  <path class="cls-2" d="M202.17,333.03c-3.45,1.95-4.89,6.41-2.85,9.8,1.88,3.12,5.99,4.13,9.21,3.12,2.47-.77,4.84-2.87,5.26-5.79,.51-3.49-2.1-5.88-2.36-6.12-2.39-2.12-6.26-2.72-9.26-1.03h0Z"/>
  <path class="cls-3" d="M202.17,333.03c-7.76,5.12-1.07,14.93,6.98,10.92,7.88-4.43,.86-14.99-6.98-10.92Zm0,0c9.75-5,18.6,7.92,8.65,13.69-10.21,4.95-18.12-7.68-8.65-13.69Z"/>
  <path class="cls-3" d="M265.23,367.15c-1.1,17.01-1.98,33.85-1.39,50.88-.14,15.03-2.6,30.25-9.44,43.89l-1.59,2.84c-.37,.56-.61,1.29-1.25,1.67-.42,.27-.97-.81-.45-.8-.35,.04-.07,.47,.08,.59,.2,.21,.38,0,.52-.21,4.92-11.19,7.16-23.33,8.21-35.36,.9-8.48,.3-16.88,.55-25.39,.42-12.8,1.9-25.6,4.75-38.12h0Z"/>
  <path class="cls-3" d="M247.6,437.31c-3.1,9.36-3.11,20.21,2.42,28.69,5.68,8.25,13.49,15.32,20.47,22.64,21.69,21.76,48.76,38.11,78.56,48.01,10.14,3.61,34.31,12.97,44.39,15.85,15.15,4.24,30.83,6.57,46.64,7.36-21.18,.32-42.52-3-62.4-10.03-17.43-6.03-34.95-11.72-51.93-18.84-21.46-10.04-41.2-23.76-57.17-40.69-6.91-7.71-14.4-14.81-19.99-23.52-5.26-9.03-4.87-20.12-1-29.48Z"/>
  <path class="cls-3" d="M259.66,421.8c-10.18,1.84-20.69,5.29-28.61,11.73-11.94,9.8-14.42,26.49-9.66,40.27,2.73,9.89,16.85,30.8,21.87,40.03-6.37-8.12-12.32-16.55-17.91-25.19-2.91-4.24-5.35-9.04-7.02-13.92-5.46-14.68-2.43-33.15,11.01-43.11,8.64-6.37,19.57-9.23,30.3-9.83h.01Z"/>
  <path class="cls-3" d="M225.53,485.97c4.78,11.67-2.95,23.68-11.27,31.95-4.23,4.36-8.69,8.45-12.58,13.03-7.64,9.09-14.33,19.25-18,30.4-5.71,18.81,3.49,33.43,16.64,46.85,25.49,25.72,59.59,42.23,92.84,57.12,22.7,9.29,46.8,15.49,71.3,18.65,65.37,8.13,160.92,4.28,215.89-33.01,9.85-7.15,16.84-17.49,21.1-28.45-3.95,11.16-10.73,21.72-20.55,29.12-46.31,33.19-122.84,40.49-179.57,38.43-37.43-1.49-75.09-7.32-109.48-21.95-11.48-4.81-22.44-10.44-33.41-16.05-21.82-11.45-43.3-24.44-60.07-42.21-13.47-14.09-22.72-29.51-16.54-48.99,5.79-17.11,18.37-31.21,31.75-43.49,8.4-8.07,16.3-19.71,11.91-31.37h.03Z"/>
  <path class="cls-3" d="M426.47,394.48c24.45,13.56,51.48,21.09,78.62,28.05,6.78,1.75,13.53,3.56,20.35,5.23,6.72,1.65,13.43,3.61,20.37,4.03,6.89,.31,14.07-.33,21.03-.16,7.06,.29,14.12,.49,21.14,.88-10.58,.51-21.1,.45-31.64,1.31-7.02,.65-14.43,.77-21.38-.84-10.38-2.12-20.55-4.79-30.82-7.37-27.09-7.05-54.66-15.39-77.7-31.13h.03Z"/>
  <path class="cls-3" d="M450.2,406.49c17.4-.49,34.9-.29,52.09-3.11,5.94-.63,12.03-.35,17.89,.97,5.78,1.44,11.37,3.52,16.58,6.09,5.08,2.64,10.03,4.67,15.85,4.65,5.86,.28,11.49-.73,17.41-.63,6.05,.24,11.7,2.84,16.02,6.51-2.42-1.55-4.98-2.85-7.68-3.75-5.56-1.95-11.2-1.09-16.94-.25-5.94,.64-12.04,1.24-17.88-.48-2.95-.85-5.63-2.16-8.23-3.33-10.17-4.84-21.28-7.97-32.73-6.77-17.36,2.45-35.03,1.51-52.41,.11h.01Z"/>
  <path class="cls-3" d="M443.18,403.47c11.49,17.32,24.81,34.21,42.02,46.71,17.23,12.37,39.57,16.76,60.84,16.37,14.32-.57,28.53-4.73,40.88-12.09-11.66,8.44-26.04,13.56-40.72,14.59-22.06,1.16-45.22-3.41-62.91-16.45-17.3-13.04-30.2-30.59-40.1-49.12Z"/>
  <path class="cls-3" d="M508.36,299.73c-4.12,2.51-7.88,5.32-11.08,8.6-3.15,3.4-6.58,6.68-7.88,10.6-2.01,5.99-.07,13.24,5.16,17.27,1.77,1.41,3.94,2.41,6.27,3.12-5.08,0-10.09-2.73-12.74-6.92-4.25-6.44-3.4-15.36,2.1-20.87,4.89-5.31,11.01-9.89,18.19-11.8h-.01Z"/>
  <path class="cls-3" d="M511.98,337.72c10.49-9.11,27.09-.8,33.27,9.27-2.64-1.71-5.18-3.39-7.79-4.88-7.69-4.43-16.57-7.64-25.47-4.39Z"/>
  <path class="cls-3" d="M520.89,335.55c-1.25,.56-2.22,1.41-2.5,2.4-.53,1.8,.31,3.81,2.55,3.76,6.47,.21,13.6-2,19.76,.92-5.57,.17-10.42,1.8-15.88,2.21-2.17,0-4.64,.29-6.75-.96-3.85-2.51-1.87-8.84,2.81-8.32h.01Z"/>
  <path class="cls-3" d="M521.35,105.71c4.12,2.49,7.09,7.01,6.58,11.79-.46,7.09-8.26,14.59-15.97,11.25-24.79-8.92-49.77-18.49-73.69-29.32-6.63-3.04-13.08-6.04-19.52-9.51-5.92-3.28-12.62-7.15-19.02-9.29-9-3.24-18.5-2.87-27.64,.03-13.9,3.88-27.53,8.56-40.95,13.81,15.22-7.09,30.98-13.44,47.38-17.67,12.29-3.08,25,1.27,35.57,7.07,16.64,9.21,34.36,16.68,51.95,24.17,15.04,6.36,31.4,12.99,46.62,19.05,6.75,3.05,13.53-3.41,14.39-9.68,.72-4.45-1.84-8.96-5.7-11.69h0Z"/>
  <path class="cls-3" d="M521.35,105.71c-24.11-9.27-47.94-19.23-71.75-29.09-15.67-6.37-32.35-11.68-49.39-12.53-5.29-.12-10.39,.39-15.08,2.75l-2.95,1.32c-9.71,4.35-20,8.25-29.68,12.52-7.71,3.63-14.8,8.41-21.35,13.79,8.97-8.99,20.37-15.71,32.28-20.65,3.94-1.8,13.76-6.28,17.53-8.07l2.9-1.37c4.88-2.6,10.94-3.37,16.43-3.31,17.71,.71,34.6,6.08,50.58,12.79,23.72,10.23,47.17,20.84,70.49,31.85h0Z"/>
  <path class="cls-3" d="M150.27,41.8c-12.79,18.48-20.66,39.28-25.57,60.8-5.27,20.99-10.76,43.11-15.4,64.27-4.46,21.11-9.42,43.41-12.94,64.71-6.57,37.96-6.04,76.55-7.23,114.91-.44,10.53-1.17,22.51-2.45,32.99-1.08,10.28-3.07,20.52-5.2,30.64-11.86,50.95-37.5,93.89-81.47,125.97,42.76-33.27,67.51-75.57,78.69-126.55,2.08-10.05,3.99-20.19,5.02-30.39,1.24-10.44,1.9-22.31,2.28-32.79,.87-38.48,.52-77.16,7.34-115.25,3.64-21.33,8.59-43.68,13.43-64.77,4.95-21.12,10.72-43.19,16.35-64.13,5.42-21.37,13.76-42.32,27.16-60.41h0Z"/>
  <path class="cls-3" d="M110.87,309.76c-7.98,48.19-17.32,98.51-26.49,146.44-4.8,24.35-9.02,49.03-17.81,72.47-8.71,23.45-20.82,45.53-33.24,67.35,11.11-22.35,22.7-44.63,30.78-68.13,8.14-23.43,12.24-47.91,16.95-72.25,9.28-47.91,19.31-98.15,29.81-145.87Z"/>
  <path class="cls-3" d="M167.93,45.48c-20.75,116.83-30.76,235.15-36.73,353.39-.83,96.21-29.88,185.61-119.4,239.71,23.03-14.67,43.59-32.83,60.23-53.85,42.34-53.17,55.47-120.64,55.94-185.96,5.74-118.32,16.36-236.85,39.95-353.28Z"/>
  <path class="cls-3" d="M131.47,593.97c14.45,5.83,28.09,13.88,38.96,24.79,5.09,5.55,9.86,11.29,15.76,16.11,5.75,4.83,12.12,9.01,18.98,12.6-7.43-2.36-14.4-6.08-20.65-10.68-6.33-4.47-11.37-10.31-16.54-15.85-10.53-10.75-23.5-18.97-36.49-26.96h-.01Z"/>
  <path class="cls-3" d="M205.16,647.48c82.94,43.37,178.31,55.89,271.15,39.97,19.07-3.32,37.98-7.56,56.56-12.87-23.31,7.85-47.46,13.61-71.85,17.47-87.25,14-180.07-.59-255.86-44.56h0Z"/>
  <path class="cls-3" d="M181.28,568.77c-12.48,4.47-24.38,10.24-34.8,18.13l-.28,.21-.25,.05c-3.92,.91-7.67,2.45-11.07,4.53-1.17,.69-2.29,1.45-3.4,2.27,1.63-2.19,3.69-4.11,6.01-5.67,2.32-1.6,4.92-2.84,7.67-3.73l-.53,.28c10.03-8.77,23-14.91,36.67-16.07h0Z"/>
  <path class="cls-3" d="M131.47,593.97c-13.6,12.23-28.84,22.84-45.24,31.44-26.97,14.37-54.58,28.81-82.36,41.68,26.39-15.65,53.47-30.27,80.83-44.33,16.49-8.2,31.97-18.11,46.77-28.79Z"/>
  <path class="cls-3" d="M222.35,265.67c.7,15.23-.9,30.52-4.81,45.31-.73-15.23,.91-30.52,4.81-45.31Z"/>
  <path class="cls-3" d="M216.6,322.08c-1.93,11.05-3.15,22.2-3.63,33.4-.04,1.03,1.65,1.03,1.69,0,.46-11.05,1.66-22.07,3.56-32.97,.18-1-1.45-1.44-1.63-.43h.01Z"/>
  <path class="cls-3" d="M229.68,288.63c.82,25-.66,50.07-4.47,74.81-.84-25,.68-50.05,4.47-74.81Z"/>
  <path class="cls-3" d="M224.52,380.16c1.69,10.33,1.07,20.99-1.88,31.07-1.72-10.33-1.06-20.97,1.88-31.07Z"/>
  <path class="cls-3" d="M338.81,.01l-5.96,5.91-5.89,5.96c-3.85,4.04-7.72,8.07-11.45,12.2-7.47,8.24-14.69,16.71-21.18,25.61-6.51,8.91-12.48,18.12-16.02,28.35-1.94,5.11-3.76,10.25-5.47,15.43-.84,2.59-1.66,5.19-2.39,7.79-.37,1.31-.72,2.61-1.03,3.92l-.45,1.96-.2,.97-.1,.48-.04,.24v.12s-.01-.04-.03-.05v.16c-.65,4.31-1.77,8.47-3.22,12.55-1.49,4.11-3.67,7.96-6.3,11.45-1.34,1.75-2.71,3.4-4.26,5-1.55,1.57-3.4,3.05-5.63,3.79-2.19,.75-4.57,.87-6.79,.43-2.24-.43-4.3-1.35-6.16-2.52,3.85,2.04,8.62,2.89,12.6,1.23,1.97-.79,3.56-2.21,4.92-3.8,1.36-1.6,2.63-3.36,3.84-5.08,2.38-3.49,4.25-7.27,5.51-11.2,1.28-3.97,2.22-8.07,2.67-12.16v.16c0-.11,0-.23,.01-.31v-.13l.06-.27,.08-.52,.18-1.04,.42-2.04c.29-1.36,.63-2.69,.97-4.03,.69-2.67,1.46-5.32,2.26-7.96,1.62-5.27,3.47-10.45,5.37-15.61l1.46-3.87c.56-1.29,1.04-2.63,1.69-3.88,1.22-2.53,2.57-4.99,3.99-7.4,2.86-4.81,6.05-9.41,9.45-13.87,6.75-8.92,14.28-17.27,22.15-25.25,3.94-4,8-7.87,12.17-11.65l6.29-5.61c2.12-1.85,4.31-3.64,6.44-5.45h.01Z"/>
  <path class="cls-3" d="M280.12,35.05c-2.83-6.47-9.2-5.79-15.04-3.68-5.8,1.92-11.54,4.04-17.57,5.41-8.2,1.69-16.33,3-24.77,2.49-12.66-.83-24.25-8.6-30.45-18.71,16.12,17.61,32.01,17.68,54.51,13.28,3.94-.76,7.81-1.84,11.73-2.89,7.29-2.05,19-5.92,21.59,4.11h0Z"/>
  <path class="cls-3" d="M263.1,74.05c-10.87,5.03-23.81,6.89-35.77,4.55-14.85-4.28-29.08-10.08-43.1-16.37,14.94,3.6,29.29,8.93,43.93,13.35,11.54,2.39,23.49,1.29,34.94-1.52Z"/>
  <path class="cls-3" d="M258.36,93.23c-7.93,5.6-19.37,8.92-29.01,4.76-6.32-2.68-10.63-7.51-16.47-10.71-8.29-5.05-17.37-8.43-26.77-11.43,13.25,1.43,26.33,6.24,36.73,14.32,10.75,9.51,22.75,8.57,35.52,3.07h0Z"/>
  <path class="cls-3" d="M193.08,94.27c-5.3-3.84-6.34-11.25-8.21-16.92-3-10.11-3.1-21.35,1.42-31.05-.9,8.21-1.05,16.27,.45,24.36,.61,4,1.82,7.92,2.46,12.12,.69,4.03,1.38,8.01,3.88,11.51h0Z"/>
  <path class="cls-3" d="M494.13,174.51c-30.06,9.66-65.11,10.33-93.9-3.79-9.64-4.73-18.27-11.42-25.26-19.41,7.89,7.11,16.67,13.06,26.26,17.29,29.05,12.83,62.23,12.13,92.9,5.9h0Z"/>
  <path class="cls-3" d="M422.41,371.21c-12.75,.43-20.64,8.25-20.16,21.15,.08,3.74,.69,7.43,1.42,11.1-1.16-3.57-1.95-7.28-2.19-11.07-.97-13.21,7.74-22.02,20.93-21.18h0Z"/>
  <path class="cls-1" d="M381.38,157.38s3.58,3.48-13.39,10.59"/>
  <path class="cls-1" d="M389.85,163.63s2.32,4.27-13.42,9.63"/>
  <path class="cls-1" d="M397.22,167.97s1.74,6.85-14.03,12.18"/>
  <path class="cls-1" d="M405.27,171.85s5.27,5.8-12.58,12.35"/>
  <path class="cls-1" d="M416.54,176.31s3.51,3.67-10.54,12.14"/>
  <path class="cls-1" d="M428.52,178.3s2.3,11.18-4.75,14.68"/>
  <line class="cls-1" x1="440.72" y1="181.25" x2="439.16" y2="194.83"/>
  <path class="cls-1" d="M450.9,180.51s-6.14,1.86,3.91,14.33"/>
  <path class="cls-1" d="M462.05,180.15s-6.74,4.38,7.55,12.83"/>
  <path class="cls-1" d="M473.01,178.76s-5.51,5.03,8.45,8.9"/>
  <path class="cls-3" d="M494.13,171.85c-25.47-17.69-55.52-30.72-86.91-30.58-10.38,0-20.72,1.79-30.79,4.77,12.05-5.27,25.46-7.65,38.68-7.21,29.07,1.23,57.29,13.96,79.02,33.02h0Z"/>
  <path class="cls-3" d="M494.13,170.27c-12.2-11.66-26.93-20.23-41.72-28.16-2.14-1.12-4.3-2.2-6.42-3.38,17.46,5.99,36.78,16.69,48.14,31.54h0Z"/>
  <path class="cls-3" d="M374.06,143.83c13.34-9.38,32.88-11.29,48.75-9.58-2.1,.21-4.19,.31-6.28,.45-14.43,1.19-29.21,2.98-42.47,9.13h0Z"/>
  <path class="cls-3" d="M392.69,174.83c-9.32-3.38-18.18-9.16-24.09-17.27-.31-.42-.92-1.26-1.23-1.66-5.97-7.07-17.09-4.33-24.8-1.89-2.6,.95-5.42,1.79-7.62,3.51,1.95-2.07,4.75-3.17,7.26-4.42,8.45-3.67,21.26-6.5,27.38,2.5,.91,1.32,2.08,2.88,3.14,4.1,5.55,6.3,12.53,11.24,19.96,15.14h0Z"/>
  <path class="cls-3" d="M366.04,146.81c-13.81-1.19-27.68-3.02-41.05-6.79,.86,.14,1.71,.29,2.56,.46,12.29,2.09,26.23,4.05,38.49,6.33h0Z"/>
  <path class="cls-3" d="M371.64,145.6c-9.82,1.5-19.01-6.07-25.3-12.81-.89-1.08-1.81-2.13-2.67-3.22,1.03,.94,2.01,1.92,3.02,2.88,6.89,6.19,15.18,13.31,24.95,13.16h0Z"/>
  <path class="cls-3" d="M489.2,171.85c-9.89-5.48-19.76-11.32-30.41-15.2-.72-.23-1.44-.46-2.16-.71,11.94,2.44,22.73,8.93,32.57,15.91h0Z"/>
  <path class="cls-3" d="M379.4,150.51c5.2-2.49,11.1-3.06,16.77-3.63,5.72-.44,11.47-.46,17.19-.07-11.27,.92-23.03,.57-33.96,3.7h0Z"/>
</svg>