<?xml version="1.0" encoding="UTF-8"?>
<svg id="Lag_1" data-name="Lag 1" xmlns="http://www.w3.org/2000/svg" viewBox="0 0 619.91 691.56">
  <defs>
    <style>
      .cls-1 {
        fill: none;
        stroke: #a03a00;
        stroke-miterlimit: 10;
        stroke-width: 1.5px;
      }

      .cls-2 {
        fill: #f2b7d3;
      }

      .cls-3 {
        fill: #a03a00;
      }
    </style>
  </defs>
  <path class="cls-3" d="M269.81,265.99c5.56,13.35,8.51,27.76,8.21,42.1-.1,4.8-.73,9.55-1.01,14.26-.96,14.22,1.23,28.4,4.83,42.24,5.43,23.19,13.14,46.05,24.76,67.2,14.33,25.12,30.95,49.35,50.44,71.23,13.27,14.26,27.13,28.45,43.01,40.17,16.21,11.23,32.99,22.27,51.46,29.89,18.43,7.61,38.99,10.86,58.88,8.36,9.96-1.23,19.73-3.78,29.04-7.42-9.15,3.96-18.88,6.79-28.9,8.25-20.08,3.06-41.03,.16-59.82-7.34-14.18-5.5-27.23-13.19-39.92-21.23-12.85-7.83-24.67-17.3-35.34-27.63-14.37-13.6-27.95-28.1-39.71-43.83-11.59-15.86-22.44-32.08-31.87-49.17-11.64-21.46-19.32-44.53-24.33-68.05-3.4-14.03-5.44-28.48-4.18-42.84,.42-4.78,1.15-9.48,1.39-14.2,.67-14.24-1.91-28.55-6.94-42.06v.04Z"/>
  <path class="cls-3" d="M270.1,135.06c-3.52-15.64-9.7-36.23-24.03-45.88-7.56-4.94-15.73-6.67-23.83-2.67-12.02,5.77-13.76,20.2-14.53,31.8-.69,10.07,.35,19.91,2.06,29.88,2.38,14.55,4.68,30.61,6.56,45.13,1.17,10.14,2.8,20.23,2.08,30.51-3.21,19.38,.9,42.18,21,52.05,9.45,4.92,20.77,6.09,30.03,.26-9.11,6.41-20.75,5.57-30.61,.85-21.11-9.35-26.21-33.54-23.28-53.4,.58-9.91-1.18-20.01-2.43-29.91-1.36-10.03-2.75-20.05-4.3-30.04-1.26-8.92-3.61-21.29-4.28-30.18-.63-13.91-.53-33.72,9.76-44.49,3.9-3.97,9.51-6.21,14.85-6.86,6.51-.59,12.84,2.01,18.02,5.51,14.46,9.95,20.29,31.53,22.93,47.44h0Z"/>
  <path class="cls-3" d="M222.58,114.24c-.11-5.99,2.65-13.19,10.17-8.94,5.03,2.98,8.33,7.29,11.52,11.54,6.09,8.62,10.7,18.5,11.76,28.85-4.6-11.95-10.91-23.18-19.24-33.15-6.91-7.85-11.05-9.68-14.2,1.7Z"/>
  <path class="cls-3" d="M230.68,105.96c-1.22,7.49-1.8,14.82-2.73,22.37-1.11,7.45-4.01,14.33-3.98,21.88,.09,14.87,2.56,29.73,4.81,44.5-3.9-10.72-6.08-21.96-7.49-33.19-1.05-7.54-1.07-15.46,1.06-22.88,3.72-10.62,4.44-22.09,8.33-32.68Z"/>
  <path class="cls-3" d="M258.91,152.75c3.84,3.44,4.99,9.26,2.93,13.9-2.52,2.76-4.39,6.09-4.79,9.73-.42,3.43,.96,6.87,2.18,10.66,1.18,3.8,1.82,7.89,1.58,11.86-.23,3.97-1.17,7.85-2.71,11.44,.49-3.87,.76-7.68,.46-11.44-.22-5.84-2.56-10.99-4.29-16.58-1.9-6.09,.79-13.05,5.56-17.09l-.23,.33c1.03-1.92,1.53-4.09,1.43-6.28-.11-2.27-.87-4.51-2.11-6.5v-.03Z"/>
  <path class="cls-3" d="M261.15,156.59c-3.58-.4-7-.48-10.55-.17-3.11,.23-7.04,.4-9.41,2.05-1.69,1.03-1.89,2.82-1.93,4.69-.1,4.26,.8,8.72,1.63,12.96,.92,4.34,2.17,8.66,3.51,13.02-2.62-3.84-4.6-8.04-6.06-12.42-1.55-5.41-5.28-17.05,1.03-20.75,2.46-1.44,5.13-1.72,7.57-1.74,4.83,0,9.76,.49,14.21,2.37Z"/>
  <path class="cls-2" d="M234.33,349.34c-1.43,.69-5.56,2.78-7.51,7.53-.29,.72-2.22,5.61,.39,10.78,3.61,7.17,12.4,7.75,12.87,7.79,4.36,.21,7.72-1.45,9.36-2.48,1.31-.81,4.95-3.15,6.32-7.65,1.9-6.17-2.04-11.28-2.72-12.13-.73-.93-3.54-4.31-8.65-5.32-4.86-.96-8.68,.82-10.06,1.49h0Z"/>
  <path class="cls-3" d="M234.33,349.34c-11.78,5.35-10.24,21.4,2.54,24.11,10.92,2.86,22.23-7.6,16.76-17.92-3.13-6.97-12.22-9.98-19.3-6.19Zm0,0c9.46-5.14,21.24,.91,23.01,10.9,2.16,10.69-11.04,19.64-21.33,15.82-13.41-3.94-14.22-21.2-1.69-26.74h.01Z"/>
  <path class="cls-2" d="M239.68,311.5c2.56,2.04,6.72,1.88,9.03-.62,1.94-2.12,2.06-5.38,.3-7.57-2.14-2.65-5.82-2.21-6.04-2.19-.36,.04-3.62,.54-5,3.33-1.2,2.43-.36,5.4,1.72,7.06h0Z"/>
  <path class="cls-3" d="M239.68,311.5c6.09,4.31,12.56-3.29,7.31-7.85-5.9-3.96-12.92,2.68-7.31,7.85Zm0,0c-7.15-6.22,1.74-15.62,9.43-10.36,7.18,6.29-1.91,15.89-9.43,10.36Z"/>
  <path class="cls-2" d="M228.61,323.87c-3.35,2.1-4.59,6.63-2.4,9.92,2.03,3.03,6.18,3.85,9.35,2.69,2.44-.89,4.7-3.09,4.99-6.02,.34-3.51-2.37-5.78-2.64-6-2.49-2.01-6.38-2.43-9.29-.6h0Z"/>
  <path class="cls-3" d="M228.61,323.87c-7.52,5.47-.38,14.97,7.48,10.58,7.66-4.79,.16-15.01-7.48-10.58Zm0,0c9.51-5.45,18.94,7.05,9.28,13.28-9.97,5.41-18.45-6.83-9.28-13.28Z"/>
  <path class="cls-3" d="M279.27,359.1c-2.61,16.85-5,33.54-5.93,50.55-1.48,14.95-5.3,29.9-13.33,42.87l-1.84,2.69c-.41,.53-.72,1.23-1.4,1.55-.44,.23-.89-.9-.38-.84-.35,0-.11,.46,.03,.59,.18,.23,.38,.03,.54-.17,5.9-10.7,9.22-22.6,11.34-34.48,1.66-8.37,1.8-16.79,2.82-25.24,1.56-12.71,4.18-25.33,8.14-37.54h0Z"/>
  <path class="cls-3" d="M258.47,443.68c-2.43,8.4-2.44,18.13,1.9,25.74,4.47,7.4,10.61,13.74,16.09,20.31,17.05,19.52,38.33,34.18,61.77,43.07,7.97,3.24,26.97,11.64,34.9,14.22,11.91,3.8,24.24,5.9,36.67,6.6-16.66,.29-33.43-2.69-49.06-8.99-13.7-5.41-27.48-10.51-40.83-16.9-16.88-9.01-32.39-21.31-44.95-36.5-5.43-6.91-11.32-13.29-15.71-21.1-4.14-8.1-3.83-18.05-.79-26.44Z"/>
  <path class="cls-3" d="M270.97,415.26c-9.39,1.54-19.13,4.69-26.59,10.89-11.25,9.45-14.05,26.06-10.13,39.97,2.19,9.97,14.46,31.27,18.77,40.64-5.58-8.3-10.76-16.9-15.61-25.69-2.53-4.32-4.61-9.19-5.99-14.12-4.53-14.83-1.18-33.2,11.46-42.76,8.12-6.12,18.22-8.65,28.07-8.94h.01Z"/>
  <path class="cls-3" d="M243.98,480.36c4.78,11.67-2.95,23.68-11.27,31.95-4.23,4.36-8.69,8.45-12.58,13.03-7.64,9.09-14.33,19.25-18,30.4-5.71,18.81,3.49,33.43,16.64,46.85,25.49,25.72,59.59,42.23,92.84,57.12,22.7,9.29,46.8,15.49,71.3,18.65,65.37,8.13,160.92,4.28,215.89-33.01,9.85-7.15,16.84-17.49,21.1-28.45-3.95,11.16-10.73,21.72-20.55,29.12-46.31,33.19-122.84,40.49-179.57,38.43-37.43-1.49-75.09-7.32-109.48-21.95-11.48-4.81-22.44-10.44-33.41-16.05-21.82-11.45-43.3-24.44-60.07-42.21-13.47-14.09-22.72-29.51-16.54-48.99,5.79-17.11,18.37-31.21,31.75-43.49,8.4-8.07,16.3-19.71,11.91-31.37h.03Z"/>
  <path class="cls-3" d="M437.42,400.74c23.14,15.69,49.39,25.61,75.8,34.97,6.6,2.35,13.16,4.76,19.81,7.02,6.55,2.25,13.06,4.8,19.93,5.83,6.84,.92,14.04,.93,20.96,1.72,7.01,.92,14.02,1.75,20.98,2.77-10.58-.44-21.06-1.44-31.63-1.53-7.05,.02-14.44-.52-21.22-2.75-10.15-3.04-20.04-6.61-30.04-10.1-26.35-9.45-53.07-20.21-74.61-37.95l.03,.02Z"/>
  <path class="cls-3" d="M459.99,414.83c17.38,1.06,34.79,2.83,52.16,1.56,5.97-.09,12.01,.73,17.73,2.57,5.63,1.95,11.01,4.52,15.97,7.55,4.82,3.08,9.57,5.54,15.37,6.05,5.82,.8,11.51,.3,17.4,.93,6,.78,11.4,3.87,15.38,7.91-2.27-1.76-4.71-3.29-7.31-4.42-5.36-2.43-11.05-2.09-16.85-1.77-5.97,.11-12.1,.16-17.76-2.08-2.87-1.11-5.41-2.65-7.9-4.06-9.7-5.73-20.48-9.84-32-9.67-17.51,.89-35.02-1.63-52.21-4.58h.02Z"/>
  <path class="cls-3" d="M453.27,411.18c9.9,18.28,21.66,36.29,37.67,50.28,16.06,13.86,37.91,20.23,59.13,21.75,14.31,.71,28.84-2.16,41.8-8.39-12.37,7.36-27.14,11.18-41.86,10.89-22.07-.82-44.74-7.44-61.18-22.01-16.07-14.53-27.35-33.16-35.55-52.51Z"/>
  <path class="cls-3" d="M527.45,313.69c-4.33,2.13-8.32,4.59-11.81,7.57-3.44,3.1-7.15,6.06-8.79,9.85-2.54,5.78-1.25,13.18,3.6,17.66,1.64,1.57,3.71,2.76,5.97,3.67-5.06-.45-9.8-3.62-12.07-8.03-3.66-6.79-2.02-15.6,3.95-20.6,5.35-4.85,11.85-8.87,19.17-10.13h-.01Z"/>
  <path class="cls-3" d="M527.67,351.85c11.27-8.13,27.06,1.63,32.31,12.2-2.48-1.94-4.85-3.84-7.33-5.56-7.27-5.1-15.82-9.09-24.98-6.65Z"/>
  <path class="cls-3" d="M536.73,350.48c-1.3,.45-2.34,1.21-2.71,2.17-.69,1.74-.03,3.83,2.2,3.97,6.43,.79,13.73-.78,19.6,2.68-5.56-.32-10.54,.86-16.02,.79-2.16-.19-4.65-.12-6.64-1.56-3.61-2.84-1.07-8.97,3.55-8.04h.02Z"/>
  <path class="cls-3" d="M555.87,129.1c3.63,3.17,5.78,8.13,4.45,12.75-1.68,6.91-10.65,12.95-17.67,8.33-22.88-13.06-45.84-26.79-67.54-41.58-6-4.14-11.85-8.2-17.59-12.73-5.27-4.25-11.2-9.21-17.13-12.43-8.31-4.74-17.73-6.01-27.23-4.74-14.36,1.43-28.59,3.69-42.72,6.55,16.21-4.36,32.83-7.9,49.71-9.24,12.64-.91,24.4,5.56,33.82,13.09,14.8,11.94,30.98,22.35,47,32.77,13.72,8.86,28.69,18.2,42.64,26.8,6.12,4.17,13.92-1.03,15.84-7.06,1.47-4.26-.27-9.14-3.6-12.5h0Z"/>
  <path class="cls-3" d="M555.87,129.1c-22.15-13.28-43.91-27.2-65.67-41.02-14.34-8.98-29.86-17.08-46.49-20.86-5.19-1.03-10.31-1.41-15.33,.11l-3.14,.79c-10.31,2.61-21.13,4.68-31.39,7.22-8.22,2.24-16.03,5.74-23.41,9.9,10.39-7.31,22.77-11.96,35.36-14.78,4.19-1.09,14.63-3.82,18.66-4.93l3.09-.85c5.26-1.72,11.36-1.44,16.75-.43,17.32,3.75,33.04,11.95,47.62,21.31,21.6,14.16,42.87,28.66,63.94,43.52h0Z"/>
  <path class="cls-3" d="M193.86,24.78c-14.39,17.26-24.09,37.28-30.91,58.27-7.13,20.43-14.57,41.97-21.09,62.63-6.33,20.62-13.27,42.4-18.67,63.29-9.94,37.22-12.85,75.7-17.47,113.8-1.38,10.45-3.18,22.31-5.39,32.64-2,10.14-4.89,20.16-7.92,30.05-16.37,49.68-45.75,90.17-92.41,118.19,45.57-29.31,73.99-69.24,89.69-119.01,2.97-9.83,5.78-19.75,7.72-29.82,2.17-10.29,3.89-22.05,5.2-32.45,4.31-38.25,7.42-76.8,17.62-114.14,5.54-20.92,12.46-42.74,19.17-63.31,6.82-20.59,14.54-42.06,22.01-62.41,7.3-20.8,17.49-40.92,32.45-57.74h0Z"/>
  <path class="cls-3" d="M130.18,293.58c-10.75,47.65-22.98,97.34-34.9,144.67-6.19,24.03-11.83,48.42-21.96,71.32-10.05,22.91-23.41,44.25-37.07,65.31,12.38-21.67,25.24-43.24,34.66-66.24,9.48-22.92,14.98-47.12,21.09-71.15,12.03-47.29,24.95-96.87,38.18-143.9Z"/>
  <path class="cls-3" d="M211.11,30.02c-31.11,114.5-51.66,231.45-68.17,348.69-9.43,95.75-46.35,182.2-140.35,228.07,24.25-12.55,46.35-28.8,64.81-48.25,46.93-49.18,66.03-115.2,72.34-180.21,16.29-117.33,37.47-234.44,71.37-348.29Z"/>
  <path class="cls-3" d="M149.92,588.36c14.45,5.83,28.09,13.88,38.96,24.79,5.09,5.55,9.86,11.29,15.76,16.11,5.75,4.83,12.12,9.01,18.98,12.6-7.43-2.36-14.4-6.08-20.65-10.68-6.33-4.47-11.37-10.31-16.54-15.85-10.53-10.75-23.5-18.97-36.49-26.96h-.01Z"/>
  <path class="cls-3" d="M223.61,641.86c82.94,43.37,178.31,55.89,271.15,39.97,19.07-3.32,37.98-7.56,56.56-12.87-23.31,7.85-47.46,13.61-71.85,17.47-87.25,14-180.07-.59-255.86-44.56h0Z"/>
  <path class="cls-3" d="M199.73,563.16c-12.48,4.47-24.38,10.24-34.8,18.13l-.28,.21-.25,.05c-3.92,.91-7.67,2.45-11.07,4.53-1.17,.69-2.29,1.45-3.4,2.27,1.63-2.19,3.69-4.11,6.01-5.67,2.32-1.6,4.92-2.84,7.67-3.73l-.53,.28c10.03-8.77,23-14.91,36.67-16.07h0Z"/>
  <path class="cls-3" d="M149.92,588.36c-13.6,12.23-28.84,22.84-45.24,31.44-26.97,14.37-54.58,28.81-82.36,41.68,26.39-15.65,53.47-30.27,80.83-44.33,16.49-8.2,31.97-18.11,46.77-28.79Z"/>
  <path class="cls-3" d="M245.65,255.65c1.41,15.18,.52,30.53-2.7,45.48-1.44-15.18-.5-30.53,2.7-45.48Z"/>
  <path class="cls-3" d="M242.52,312.27c-1.41,11.13-2.12,22.32-2.08,33.53,0,1.03,1.69,.95,1.69-.08-.05-11.06,.64-22.12,2.03-33.1,.14-1.01-1.51-1.37-1.65-.35h.01Z"/>
  <path class="cls-3" d="M254.04,278.24c1.97,24.94,1.66,50.04-1,74.94-2-24.93-1.65-50.03,1-74.94Z"/>
  <path class="cls-3" d="M253.12,369.92c2.17,10.24,2.04,20.91-.44,31.12-2.19-10.24-2.03-20.9,.44-31.12Z"/>
  <path class="cls-3" d="M385.38,.01l-6.47,5.35-6.4,5.41c-4.2,3.68-8.41,7.34-12.49,11.13-8.18,7.54-16.12,15.33-23.39,23.62-7.28,8.29-14.05,16.93-18.49,26.8-2.39,4.91-4.66,9.88-6.83,14.88-1.07,2.5-2.12,5.02-3.08,7.54-.48,1.27-.95,2.54-1.37,3.81l-.62,1.91-.28,.95-.14,.47-.06,.24v.12s-.02-.04-.03-.06v.16c-1.04,4.23-2.54,8.27-4.34,12.21-1.85,3.96-4.37,7.6-7.3,10.84-1.49,1.62-3.01,3.14-4.69,4.6-1.68,1.43-3.66,2.74-5.94,3.27-2.25,.55-4.63,.45-6.8-.18-2.19-.63-4.17-1.73-5.91-3.06,3.66,2.38,8.33,3.65,12.44,2.35,2.03-.61,3.74-1.89,5.24-3.34,1.5-1.47,2.92-3.11,4.28-4.72,2.68-3.27,4.88-6.86,6.49-10.66,1.63-3.84,2.94-7.83,3.75-11.87v.16c0-.11,0-.23,.03-.3v-.13s.09-.26,.09-.26l.13-.51,.28-1.02,.6-1.99c.42-1.33,.87-2.63,1.33-3.92,.92-2.59,1.93-5.17,2.97-7.73,2.08-5.1,4.39-10.1,6.75-15.07l1.8-3.72c.68-1.24,1.27-2.52,2.03-3.71,1.45-2.41,3.01-4.74,4.64-7.01,3.27-4.54,6.87-8.83,10.65-12.97,7.52-8.28,15.76-15.92,24.32-23.17,4.28-3.63,8.68-7.12,13.16-10.52l6.76-5.03c2.28-1.66,4.61-3.24,6.9-4.86h.01Z"/>
  <path class="cls-3" d="M323.79,29.67c-2.24-6.69-8.65-6.59-14.65-5.01-5.94,1.39-11.85,2.99-17.98,3.82-8.32,.95-16.53,1.53-24.89,.27-12.54-1.96-23.39-10.73-28.66-21.35,14.48,18.98,30.31,20.47,53.1,18.1,3.99-.4,7.94-1.13,11.94-1.83,7.44-1.39,19.46-4.2,21.14,6.02h0Z"/>
  <path class="cls-3" d="M303.35,66.99c-11.28,4.03-24.33,4.74-36.03,1.33-14.41-5.59-28.06-12.64-41.46-20.16,14.56,4.92,28.37,11.52,42.56,17.22,11.28,3.41,23.28,3.39,34.94,1.61Z"/>
  <path class="cls-3" d="M296.92,85.66c-8.4,4.87-20.09,7.15-29.32,2.15-6.05-3.23-9.92-8.43-15.45-12.14-7.8-5.77-16.55-9.95-25.64-13.77,13.07,2.6,25.67,8.57,35.3,17.55,9.85,10.43,21.89,10.57,35.1,6.23h0Z"/>
  <path class="cls-3" d="M231.8,80.86c-4.94-4.3-5.31-11.78-6.67-17.59-2.08-10.33-1.17-21.54,4.19-30.8-1.63,8.1-2.5,16.11-1.73,24.3,.25,4.04,1.1,8.05,1.37,12.29,.33,4.07,.66,8.1,2.84,11.81h0Z"/>
  <path class="cls-3" d="M524.47,187.7c-30.8,6.94-65.77,4.47-93.19-12.17-9.18-5.57-17.18-13.01-23.42-21.59,7.22,7.78,15.44,14.5,24.61,19.57,27.79,15.37,60.9,17.64,92,14.18h0Z"/>
  <path class="cls-3" d="M435.45,377.2c-12.74-.72-21.29,6.37-21.97,19.27-.26,3.73,.02,7.47,.42,11.18-.83-3.66-1.29-7.43-1.19-11.22,.21-13.24,9.68-21.24,22.74-19.23h0Z"/>
  <path class="cls-1" d="M413.7,160.56s3.26,3.79-14.29,9.35"/>
  <path class="cls-1" d="M421.58,167.54s1.93,4.46-14.22,8.39"/>
  <path class="cls-1" d="M428.54,172.52s1.12,6.98-15.06,10.88"/>
  <path class="cls-1" d="M436.21,177.1s4.73,6.25-13.64,11.18"/>
  <path class="cls-1" d="M447.03,182.56s3.17,3.97-11.59,11.15"/>
  <path class="cls-1" d="M458.79,185.61s1.3,11.34-6.05,14.19"/>
  <line class="cls-1" x1="470.67" y1="189.64" x2="467.91" y2="203.03"/>
  <path class="cls-1" d="M480.88,189.8s-6.29,1.31,2.61,14.62"/>
  <path class="cls-1" d="M492.02,190.45s-7.1,3.76,6.37,13.45"/>
  <path class="cls-1" d="M503.06,190.05s-5.94,4.52,7.62,9.62"/>
  <path class="cls-3" d="M524.71,185.05c-23.79-19.9-52.56-35.56-83.83-38.22-10.34-.93-20.79-.07-31.09,2,12.47-4.17,26.04-5.34,39.17-3.73,28.84,3.82,55.81,19.03,75.75,39.95h0Z"/>
  <path class="cls-3" d="M524.85,183.47c-11.1-12.7-25.01-22.56-39.03-31.77-2.03-1.31-4.08-2.57-6.09-3.94,16.85,7.52,35.14,19.92,45.12,35.72h0Z"/>
  <path class="cls-3" d="M407.62,146.41c14.13-8.15,33.76-8.31,49.41-5.19-2.11,.02-4.2-.06-6.29-.11-14.47-.11-29.36,.36-43.12,5.3h0Z"/>
  <path class="cls-3" d="M423.41,178.95c-8.98-4.2-17.29-10.75-22.44-19.36-.27-.44-.8-1.33-1.08-1.76-5.32-7.57-16.63-5.84-24.53-4.1-2.68,.71-5.56,1.3-7.9,2.81,2.12-1.89,5.01-2.73,7.63-3.75,8.74-2.9,21.75-4.57,27.05,4.94,.79,1.4,1.82,3.05,2.76,4.37,4.96,6.77,11.48,12.32,18.52,16.86h0Z"/>
  <path class="cls-3" d="M399.38,148.66c-13.65-2.42-27.3-5.48-40.28-10.43,.84,.22,1.68,.45,2.51,.68,12.05,3.18,25.76,6.38,37.77,9.74h0Z"/>
  <path class="cls-3" d="M405.06,147.95c-9.92,.62-18.39-7.75-24.05-15.02-.79-1.15-1.61-2.28-2.37-3.45,.94,1.03,1.83,2.1,2.75,3.14,6.31,6.78,13.93,14.62,23.67,15.33h0Z"/>
  <path class="cls-3" d="M519.81,184.61c-9.36-6.34-18.67-13.04-28.93-17.86-.7-.29-1.39-.59-2.09-.9,11.67,3.5,21.84,10.93,31.02,18.76h0Z"/>
  <path class="cls-3" d="M412.35,153.54c5.4-2.02,11.33-2.05,17.03-2.12,5.74,.08,11.46,.57,17.13,1.47-11.31-.09-22.99-1.49-34.16,.65h0Z"/>
  <path class="cls-3" d="M544.33,166.19c-1.9,5.01-8.43,19.2-13.99,20.04-.61,0-1.13-.35-1.44-.8,.4,.39,.92,.61,1.43,.54,1.56-.35,2.62-1.8,3.63-2.98,1.32-1.72,2.53-3.55,3.68-5.41,2.02-3.25,4.74-8.03,6.7-11.37h0Z"/>
</svg>