<?xml version="1.0" encoding="utf-8"?>
<!-- Generator: Adobe Illustrator 27.0.0, SVG Export Plug-In . SVG Version: 6.00 Build 0)  -->
<svg version="1.1" id="Lag_1" xmlns="http://www.w3.org/2000/svg" xmlns:xlink="http://www.w3.org/1999/xlink" x="0px" y="0px"
	 viewBox="0 0 633 800" style="enable-background:new 0 0 633 800;" xml:space="preserve">
<style type="text/css">
	.st0{fill:#FEF8FB;}
	.st1{fill:#A03A00;}
	.st2{fill:#F2B7D3;}
	.st3{fill:none;stroke:#A03A00;stroke-width:1.5;stroke-miterlimit:10;}
</style>
<rect class="st0" width="633" height="800"/>
<path class="st1" d="M266.6,304.7c5.6,13.4,8.5,27.8,8.2,42.1c-0.1,4.8-0.7,9.5-1,14.3c-1,14.2,1.2,28.4,4.8,42.2
	c5.4,23.2,13.1,46.1,24.8,67.2c14.3,25.1,30.9,49.4,50.4,71.2c13.3,14.3,27.1,28.4,43,40.2c16.2,11.2,33,22.3,51.5,29.9
	c18.4,7.6,39,10.9,58.9,8.4c10-1.2,19.7-3.8,29-7.4c-9.1,4-18.9,6.8-28.9,8.2c-20.1,3.1-41,0.2-59.8-7.3
	c-14.2-5.5-27.2-13.2-39.9-21.2c-12.9-7.8-24.7-17.3-35.3-27.6c-14.4-13.6-28-28.1-39.7-43.8c-11.6-15.9-22.4-32.1-31.9-49.2
	c-11.6-21.5-19.3-44.5-24.3-68c-3.4-14-5.4-28.5-4.2-42.8c0.4-4.8,1.1-9.5,1.4-14.2C274.2,332.5,271.6,318.2,266.6,304.7
	L266.6,304.7z"/>
<path class="st1" d="M266.9,173.8c-3.5-15.6-9.7-36.2-24-45.9c-7.6-4.9-15.7-6.7-23.8-2.7c-12,5.8-13.8,20.2-14.5,31.8
	c-0.7,10.1,0.3,19.9,2.1,29.9c2.4,14.6,4.7,30.6,6.6,45.1c1.2,10.1,2.8,20.2,2.1,30.5c-3.2,19.4,0.9,42.2,21,52
	c9.4,4.9,20.8,6.1,30,0.3c-9.1,6.4-20.8,5.6-30.6,0.9c-21.1-9.4-26.2-33.5-23.3-53.4c0.6-9.9-1.2-20-2.4-29.9c-1.4-10-2.7-20-4.3-30
	c-1.3-8.9-3.6-21.3-4.3-30.2c-0.6-13.9-0.5-33.7,9.8-44.5c3.9-4,9.5-6.2,14.9-6.9c6.5-0.6,12.8,2,18,5.5
	C258.4,136.3,264.3,157.9,266.9,173.8L266.9,173.8z"/>
<path class="st1" d="M219.4,153c-0.1-6,2.7-13.2,10.2-8.9c5,3,8.3,7.3,11.5,11.5c6.1,8.6,10.7,18.5,11.8,28.8
	c-4.6-12-10.9-23.2-19.2-33.1C226.7,143.4,222.5,141.6,219.4,153z"/>
<path class="st1" d="M227.5,144.7c-1.2,7.5-1.8,14.8-2.7,22.4c-1.1,7.5-4,14.3-4,21.9c0.1,14.9,2.6,29.7,4.8,44.5
	c-3.9-10.7-6.1-22-7.5-33.2c-1-7.5-1.1-15.5,1.1-22.9C222.9,166.8,223.6,155.3,227.5,144.7z"/>
<path class="st1" d="M255.7,191.5c3.8,3.4,5,9.3,2.9,13.9c-2.5,2.8-4.4,6.1-4.8,9.7c-0.4,3.4,1,6.9,2.2,10.7
	c1.2,3.8,1.8,7.9,1.6,11.9c-0.2,4-1.2,7.8-2.7,11.4c0.5-3.9,0.8-7.7,0.5-11.4c-0.2-5.8-2.6-11-4.3-16.6c-1.9-6.1,0.8-13,5.6-17.1
	l-0.2,0.3c1-1.9,1.5-4.1,1.4-6.3C257.7,195.7,257,193.5,255.7,191.5L255.7,191.5z"/>
<path class="st1" d="M258,195.3c-3.6-0.4-7-0.5-10.5-0.2c-3.1,0.2-7,0.4-9.4,2c-1.7,1-1.9,2.8-1.9,4.7c-0.1,4.3,0.8,8.7,1.6,13
	c0.9,4.3,2.2,8.7,3.5,13c-2.6-3.8-4.6-8-6.1-12.4c-1.5-5.4-5.3-17,1-20.8c2.5-1.4,5.1-1.7,7.6-1.7
	C248.6,192.9,253.5,193.4,258,195.3z"/>
<path class="st2" d="M231.1,388.1c-1.4,0.7-5.6,2.8-7.5,7.5c-0.3,0.7-2.2,5.6,0.4,10.8c3.6,7.2,12.4,7.8,12.9,7.8
	c4.4,0.2,7.7-1.5,9.4-2.5c1.3-0.8,5-3.2,6.3-7.6c1.9-6.2-2-11.3-2.7-12.1c-0.7-0.9-3.5-4.3-8.7-5.3
	C236.3,385.6,232.5,387.4,231.1,388.1L231.1,388.1z"/>
<path class="st1" d="M231.1,388.1c-11.8,5.4-10.2,21.4,2.5,24.1c10.9,2.9,22.2-7.6,16.8-17.9C247.3,387.3,238.2,384.3,231.1,388.1z
	 M231.1,388.1c9.5-5.1,21.2,0.9,23,10.9c2.2,10.7-11,19.6-21.3,15.8C219.4,410.9,218.6,393.6,231.1,388.1L231.1,388.1z"/>
<path class="st2" d="M236.5,350.2c2.6,2,6.7,1.9,9-0.6c1.9-2.1,2.1-5.4,0.3-7.6c-2.1-2.7-5.8-2.2-6-2.2c-0.4,0-3.6,0.5-5,3.3
	C233.6,345.6,234.4,348.6,236.5,350.2L236.5,350.2z"/>
<path class="st1" d="M236.5,350.2c6.1,4.3,12.6-3.3,7.3-7.9C237.9,338.4,230.9,345.1,236.5,350.2z M236.5,350.2
	c-7.1-6.2,1.7-15.6,9.4-10.4C253.1,346.2,244,355.8,236.5,350.2z"/>
<path class="st2" d="M225.4,362.6c-3.4,2.1-4.6,6.6-2.4,9.9c2,3,6.2,3.9,9.3,2.7c2.4-0.9,4.7-3.1,5-6c0.3-3.5-2.4-5.8-2.6-6
	C232.2,361.2,228.3,360.8,225.4,362.6L225.4,362.6z"/>
<path class="st1" d="M225.4,362.6c-7.5,5.5-0.4,15,7.5,10.6C240.6,368.4,233.1,358.2,225.4,362.6z M225.4,362.6
	c9.5-5.4,18.9,7,9.3,13.3C224.7,381.3,216.2,369.1,225.4,362.6z"/>
<path class="st1" d="M276.1,397.8c-2.6,16.8-5,33.5-5.9,50.6c-1.5,15-5.3,29.9-13.3,42.9L255,494c-0.4,0.5-0.7,1.2-1.4,1.5
	c-0.4,0.2-0.9-0.9-0.4-0.8c-0.4,0-0.1,0.5,0,0.6c0.2,0.2,0.4,0,0.5-0.2c5.9-10.7,9.2-22.6,11.3-34.5c1.7-8.4,1.8-16.8,2.8-25.2
	C269.5,422.7,272.1,410,276.1,397.8L276.1,397.8z"/>
<path class="st1" d="M255.3,482.4c-2.4,8.4-2.4,18.1,1.9,25.7c4.5,7.4,10.6,13.7,16.1,20.3c17.1,19.5,38.3,34.2,61.8,43.1
	c8,3.2,27,11.6,34.9,14.2c11.9,3.8,24.2,5.9,36.7,6.6c-16.7,0.3-33.4-2.7-49.1-9c-13.7-5.4-27.5-10.5-40.8-16.9
	c-16.9-9-32.4-21.3-44.9-36.5c-5.4-6.9-11.3-13.3-15.7-21.1C251.9,500.8,252.2,490.8,255.3,482.4z"/>
<path class="st1" d="M267.8,454c-9.4,1.5-19.1,4.7-26.6,10.9c-11.3,9.4-14,26.1-10.1,40c2.2,10,14.5,31.3,18.8,40.6
	c-5.6-8.3-10.8-16.9-15.6-25.7c-2.5-4.3-4.6-9.2-6-14.1c-4.5-14.8-1.2-33.2,11.5-42.8C247.8,456.8,257.9,454.3,267.8,454L267.8,454z
	"/>
<path class="st1" d="M240.8,519.1c4.8,11.7-3,23.7-11.3,31.9c-4.2,4.4-8.7,8.5-12.6,13c-7.6,9.1-14.3,19.3-18,30.4
	c-5.7,18.8,3.5,33.4,16.6,46.9c25.5,25.7,59.6,42.2,92.8,57.1c22.7,9.3,46.8,15.5,71.3,18.7c65.4,8.1,160.9,4.3,215.9-33
	c9.8-7.1,16.8-17.5,21.1-28.5c-4,11.2-10.7,21.7-20.6,29.1c-46.3,33.2-122.8,40.5-179.6,38.4c-37.4-1.5-75.1-7.3-109.5-21.9
	c-11.5-4.8-22.4-10.4-33.4-16.1c-21.8-11.5-43.3-24.4-60.1-42.2c-13.5-14.1-22.7-29.5-16.5-49c5.8-17.1,18.4-31.2,31.7-43.5
	C237.2,542.4,245.2,530.8,240.8,519.1L240.8,519.1z"/>
<path class="st1" d="M434.2,439.5c23.1,15.7,49.4,25.6,75.8,35c6.6,2.3,13.2,4.8,19.8,7c6.5,2.2,13.1,4.8,19.9,5.8
	c6.8,0.9,14,0.9,21,1.7c7,0.9,14,1.8,21,2.8c-10.6-0.4-21.1-1.4-31.6-1.5c-7,0-14.4-0.5-21.2-2.7c-10.1-3-20-6.6-30-10.1
	C482.5,468,455.8,457.2,434.2,439.5L434.2,439.5z"/>
<path class="st1" d="M456.8,453.6c17.4,1.1,34.8,2.8,52.2,1.6c6-0.1,12,0.7,17.7,2.6c5.6,2,11,4.5,16,7.6c4.8,3.1,9.6,5.5,15.4,6.1
	c5.8,0.8,11.5,0.3,17.4,0.9c6,0.8,11.4,3.9,15.4,7.9c-2.3-1.8-4.7-3.3-7.3-4.4c-5.4-2.4-11.1-2.1-16.8-1.8c-6,0.1-12.1,0.2-17.8-2.1
	c-2.9-1.1-5.4-2.7-7.9-4.1c-9.7-5.7-20.5-9.8-32-9.7C491.5,459,474,456.5,456.8,453.6L456.8,453.6z"/>
<path class="st1" d="M450.1,449.9c9.9,18.3,21.7,36.3,37.7,50.3c16.1,13.9,37.9,20.2,59.1,21.7c14.3,0.7,28.8-2.2,41.8-8.4
	c-12.4,7.4-27.1,11.2-41.9,10.9c-22.1-0.8-44.7-7.4-61.2-22C469.6,487.9,458.3,469.3,450.1,449.9z"/>
<path class="st1" d="M524.3,352.4c-4.3,2.1-8.3,4.6-11.8,7.6c-3.4,3.1-7.2,6.1-8.8,9.9c-2.5,5.8-1.3,13.2,3.6,17.7
	c1.6,1.6,3.7,2.8,6,3.7c-5.1-0.5-9.8-3.6-12.1-8c-3.7-6.8-2-15.6,4-20.6C510.5,357.7,517,353.7,524.3,352.4L524.3,352.4z"/>
<path class="st1" d="M524.5,390.6c11.3-8.1,27.1,1.6,32.3,12.2c-2.5-1.9-4.9-3.8-7.3-5.6C542.2,392.1,533.6,388.1,524.5,390.6z"/>
<path class="st1" d="M533.5,389.2c-1.3,0.4-2.3,1.2-2.7,2.2c-0.7,1.7,0,3.8,2.2,4c6.4,0.8,13.7-0.8,19.6,2.7
	c-5.6-0.3-10.5,0.9-16,0.8c-2.2-0.2-4.6-0.1-6.6-1.6C526.4,394.4,528.9,388.3,533.5,389.2L533.5,389.2z"/>
<path class="st1" d="M552.7,167.8c3.6,3.2,5.8,8.1,4.5,12.7c-1.7,6.9-10.6,12.9-17.7,8.3c-22.9-13.1-45.8-26.8-67.5-41.6
	c-6-4.1-11.8-8.2-17.6-12.7c-5.3-4.3-11.2-9.2-17.1-12.4c-8.3-4.7-17.7-6-27.2-4.7c-14.4,1.4-28.6,3.7-42.7,6.5
	c16.2-4.4,32.8-7.9,49.7-9.2c12.6-0.9,24.4,5.6,33.8,13.1c14.8,11.9,31,22.4,47,32.8c13.7,8.9,28.7,18.2,42.6,26.8
	c6.1,4.2,13.9-1,15.8-7.1C557.8,176.1,556,171.2,552.7,167.8L552.7,167.8z"/>
<path class="st1" d="M552.7,167.8c-22.2-13.3-43.9-27.2-65.7-41c-14.3-9-29.9-17.1-46.5-20.9c-5.2-1-10.3-1.4-15.3,0.1l-3.1,0.8
	c-10.3,2.6-21.1,4.7-31.4,7.2c-8.2,2.2-16,5.7-23.4,9.9c10.4-7.3,22.8-12,35.4-14.8c4.2-1.1,14.6-3.8,18.7-4.9l3.1-0.9
	c5.3-1.7,11.4-1.4,16.8-0.4c17.3,3.7,33,12,47.6,21.3C510.3,138.5,531.6,153,552.7,167.8L552.7,167.8z"/>
<path class="st1" d="M190.7,63.5c-14.4,17.3-24.1,37.3-30.9,58.3c-7.1,20.4-14.6,42-21.1,62.6c-6.3,20.6-13.3,42.4-18.7,63.3
	c-9.9,37.2-12.9,75.7-17.5,113.8c-1.4,10.5-3.2,22.3-5.4,32.6c-2,10.1-4.9,20.2-7.9,30.1c-16.4,49.7-45.7,90.2-92.4,118.2
	c45.6-29.3,74-69.2,89.7-119c3-9.8,5.8-19.7,7.7-29.8c2.2-10.3,3.9-22,5.2-32.5c4.3-38.2,7.4-76.8,17.6-114.1
	c5.5-20.9,12.5-42.7,19.2-63.3c6.8-20.6,14.5-42.1,22-62.4C165.5,100.4,175.7,80.3,190.7,63.5L190.7,63.5z"/>
<path class="st1" d="M127,332.3C116.2,380,104,429.7,92.1,477c-6.2,24-11.8,48.4-22,71.3c-10,22.9-23.4,44.3-37.1,65.3
	c12.4-21.7,25.2-43.2,34.7-66.2c9.5-22.9,15-47.1,21.1-71.2C100.8,428.9,113.8,379.4,127,332.3z"/>
<path class="st1" d="M207.9,68.8c-31.1,114.5-51.7,231.5-68.2,348.7c-9.4,95.8-46.4,182.2-140.3,228.1
	c24.2-12.5,46.4-28.8,64.8-48.3c46.9-49.2,66-115.2,72.3-180.2C152.8,299.7,174,182.6,207.9,68.8z"/>
<path class="st1" d="M146.7,627.1c14.4,5.8,28.1,13.9,39,24.8c5.1,5.5,9.9,11.3,15.8,16.1c5.8,4.8,12.1,9,19,12.6
	c-7.4-2.4-14.4-6.1-20.7-10.7c-6.3-4.5-11.4-10.3-16.5-15.9C172.7,643.3,159.7,635.1,146.7,627.1L146.7,627.1z"/>
<path class="st1" d="M220.4,680.6c82.9,43.4,178.3,55.9,271.1,40c19.1-3.3,38-7.6,56.6-12.9c-23.3,7.9-47.5,13.6-71.9,17.5
	C389,739.2,296.2,724.6,220.4,680.6L220.4,680.6z"/>
<path class="st1" d="M196.5,601.9c-12.5,4.5-24.4,10.2-34.8,18.1l-0.3,0.2l-0.3,0.1c-3.9,0.9-7.7,2.5-11.1,4.5
	c-1.2,0.7-2.3,1.5-3.4,2.3c1.6-2.2,3.7-4.1,6-5.7c2.3-1.6,4.9-2.8,7.7-3.7l-0.5,0.3C169.9,609.2,182.9,603.1,196.5,601.9
	L196.5,601.9z"/>
<path class="st1" d="M146.7,627.1c-13.6,12.2-28.8,22.8-45.2,31.4c-27,14.4-54.6,28.8-82.4,41.7c26.4-15.7,53.5-30.3,80.8-44.3
	C116.4,647.7,131.9,637.8,146.7,627.1z"/>
<path class="st1" d="M242.5,294.4c1.4,15.2,0.5,30.5-2.7,45.5C238.3,324.7,239.3,309.3,242.5,294.4z"/>
<path class="st1" d="M239.3,351c-1.4,11.1-2.1,22.3-2.1,33.5c0,1,1.7,0.9,1.7-0.1c0-11.1,0.6-22.1,2-33.1
	C241.1,350.3,239.5,350,239.3,351L239.3,351z"/>
<path class="st1" d="M250.8,317c2,24.9,1.7,50-1,74.9C247.8,367,248.2,341.9,250.8,317z"/>
<path class="st1" d="M249.9,408.7c2.2,10.2,2,20.9-0.4,31.1C247.3,429.5,247.5,418.9,249.9,408.7z"/>
<path class="st1" d="M382.2,38.8l-6.5,5.3l-6.4,5.4c-4.2,3.7-8.4,7.3-12.5,11.1c-8.2,7.5-16.1,15.3-23.4,23.6
	c-7.3,8.3-14,16.9-18.5,26.8c-2.4,4.9-4.7,9.9-6.8,14.9c-1.1,2.5-2.1,5-3.1,7.5c-0.5,1.3-0.9,2.5-1.4,3.8l-0.6,1.9l-0.3,1l-0.1,0.5
	l-0.1,0.2l0,0.1c0,0,0,0,0-0.1l0,0.2c-1,4.2-2.5,8.3-4.3,12.2c-1.9,4-4.4,7.6-7.3,10.8c-1.5,1.6-3,3.1-4.7,4.6
	c-1.7,1.4-3.7,2.7-5.9,3.3c-2.3,0.5-4.6,0.5-6.8-0.2c-2.2-0.6-4.2-1.7-5.9-3.1c3.7,2.4,8.3,3.7,12.4,2.3c2-0.6,3.7-1.9,5.2-3.3
	c1.5-1.5,2.9-3.1,4.3-4.7c2.7-3.3,4.9-6.9,6.5-10.7c1.6-3.8,2.9-7.8,3.7-11.9l0,0.2c0-0.1,0-0.2,0-0.3l0-0.1l0.1-0.3l0.1-0.5l0.3-1
	l0.6-2c0.4-1.3,0.9-2.6,1.3-3.9c0.9-2.6,1.9-5.2,3-7.7c2.1-5.1,4.4-10.1,6.7-15.1l1.8-3.7c0.7-1.2,1.3-2.5,2-3.7
	c1.4-2.4,3-4.7,4.6-7c3.3-4.5,6.9-8.8,10.7-13c7.5-8.3,15.8-15.9,24.3-23.2c4.3-3.6,8.7-7.1,13.2-10.5l6.8-5
	C377.6,41.9,379.9,40.4,382.2,38.8L382.2,38.8z"/>
<path class="st1" d="M320.6,68.4c-2.2-6.7-8.6-6.6-14.6-5c-5.9,1.4-11.8,3-18,3.8c-8.3,1-16.5,1.5-24.9,0.3
	c-12.5-2-23.4-10.7-28.7-21.4c14.5,19,30.3,20.5,53.1,18.1c4-0.4,7.9-1.1,11.9-1.8C306.9,61,318.9,58.2,320.6,68.4L320.6,68.4z"/>
<path class="st1" d="M300.2,105.7c-11.3,4-24.3,4.7-36,1.3c-14.4-5.6-28.1-12.6-41.5-20.2c14.6,4.9,28.4,11.5,42.6,17.2
	C276.5,107.5,288.5,107.5,300.2,105.7z"/>
<path class="st1" d="M293.7,124.4c-8.4,4.9-20.1,7.2-29.3,2.1c-6.1-3.2-9.9-8.4-15.4-12.1c-7.8-5.8-16.5-9.9-25.6-13.8
	c13.1,2.6,25.7,8.6,35.3,17.5C268.5,128.6,280.5,128.8,293.7,124.4L293.7,124.4z"/>
<path class="st1" d="M228.6,119.6c-4.9-4.3-5.3-11.8-6.7-17.6c-2.1-10.3-1.2-21.5,4.2-30.8c-1.6,8.1-2.5,16.1-1.7,24.3
	c0.2,4,1.1,8.1,1.4,12.3C226.1,111.9,226.4,115.9,228.6,119.6L228.6,119.6z"/>
<g>
	<path class="st1" d="M521.3,226.4c-30.8,6.9-65.8,4.5-93.2-12.2c-9.2-5.6-17.2-13-23.4-21.6c7.2,7.8,15.4,14.5,24.6,19.6
		C457.1,227.6,490.2,229.9,521.3,226.4L521.3,226.4z"/>
</g>
<g>
	<path class="st1" d="M432.3,415.9c-12.7-0.7-21.3,6.4-22,19.3c-0.3,3.7,0,7.5,0.4,11.2c-0.8-3.7-1.3-7.4-1.2-11.2
		C409.7,421.9,419.2,413.9,432.3,415.9L432.3,415.9z"/>
</g>
<path class="st3" d="M410.5,199.3c0,0,3.3,3.8-14.3,9.3"/>
<path class="st3" d="M418.4,206.3c0,0,1.9,4.5-14.2,8.4"/>
<path class="st3" d="M425.4,211.3c0,0,1.1,7-15.1,10.9"/>
<path class="st3" d="M433,215.8c0,0,4.7,6.2-13.6,11.2"/>
<path class="st3" d="M443.8,221.3c0,0,3.2,4-11.6,11.1"/>
<path class="st3" d="M455.6,224.3c0,0,1.3,11.3-6,14.2"/>
<line class="st3" x1="467.5" y1="228.4" x2="464.7" y2="241.8"/>
<path class="st3" d="M477.7,228.5c0,0-6.3,1.3,2.6,14.6"/>
<path class="st3" d="M488.8,229.2c0,0-7.1,3.8,6.4,13.5"/>
<path class="st3" d="M499.9,228.8c0,0-5.9,4.5,7.6,9.6"/>
<g>
	<path class="st1" d="M521.5,223.8c-23.8-19.9-52.6-35.6-83.8-38.2c-10.3-0.9-20.8-0.1-31.1,2c12.5-4.2,26-5.3,39.2-3.7
		C474.6,187.7,501.6,202.9,521.5,223.8L521.5,223.8z"/>
</g>
<g>
	<path class="st1" d="M521.7,222.2c-11.1-12.7-25-22.6-39-31.8c-2-1.3-4.1-2.6-6.1-3.9C493.4,194,511.7,206.4,521.7,222.2
		L521.7,222.2z"/>
</g>
<g>
	<path class="st1" d="M404.4,185.1c14.1-8.2,33.8-8.3,49.4-5.2c-2.1,0-4.2-0.1-6.3-0.1C433.1,179.7,418.2,180.2,404.4,185.1
		L404.4,185.1z"/>
</g>
<g>
	<path class="st1" d="M420.2,217.7c-9-4.2-17.3-10.7-22.4-19.4c-0.3-0.4-0.8-1.3-1.1-1.8c-5.3-7.6-16.6-5.8-24.5-4.1
		c-2.7,0.7-5.6,1.3-7.9,2.8c2.1-1.9,5-2.7,7.6-3.8c8.7-2.9,21.8-4.6,27,4.9c0.8,1.4,1.8,3.1,2.8,4.4
		C406.7,207.6,413.2,213.1,420.2,217.7L420.2,217.7z"/>
</g>
<g>
	<path class="st1" d="M396.2,187.4c-13.7-2.4-27.3-5.5-40.3-10.4c0.8,0.2,1.7,0.4,2.5,0.7C370.5,180.8,384.2,184,396.2,187.4
		L396.2,187.4z"/>
</g>
<g>
	<path class="st1" d="M401.9,186.7c-9.9,0.6-18.4-7.7-24.1-15c-0.8-1.2-1.6-2.3-2.4-3.4c0.9,1,1.8,2.1,2.7,3.1
		C384.5,178.1,392.1,186,401.9,186.7L401.9,186.7z"/>
</g>
<g>
	<path class="st1" d="M516.6,223.3c-9.4-6.3-18.7-13-28.9-17.9c-0.7-0.3-1.4-0.6-2.1-0.9C497.3,208.1,507.4,215.5,516.6,223.3
		L516.6,223.3z"/>
</g>
<g>
	<path class="st1" d="M409.2,192.3c5.4-2,11.3-2.1,17-2.1c5.7,0.1,11.5,0.6,17.1,1.5C432,191.5,420.3,190.1,409.2,192.3L409.2,192.3
		z"/>
</g>
<g>
	<path class="st1" d="M541.1,204.9c-1.9,5-8.4,19.2-14,20c-0.6,0-1.1-0.4-1.4-0.8c0.4,0.4,0.9,0.6,1.4,0.5c1.6-0.4,2.6-1.8,3.6-3
		c1.3-1.7,2.5-3.5,3.7-5.4C536.5,213.1,539.2,208.3,541.1,204.9L541.1,204.9z"/>
</g>
</svg>
